<?xml version="1.0" encoding="UTF-8"?>
<svg width="1200px" height="1200px" viewBox="0 0 1200 1200" version="1.1" xmlns="http://www.w3.org/2000/svg" xmlns:xlink="http://www.w3.org/1999/xlink">
    <title>画板</title>
    <defs>
        <linearGradient x1="50%" y1="24.9261946%" x2="100%" y2="101.768856%" id="linearGradient-1">
            <stop stop-color="#80C3F3" offset="0%"></stop>
            <stop stop-color="#4A90E2" offset="100%"></stop>
        </linearGradient>
    </defs>
    <g id="画板" stroke="none" stroke-width="1" fill="none" fill-rule="evenodd">
        <g id="编组-2" transform="translate(146.000000, 46.000000)" fill-rule="nonzero" stroke="#4A4A4A">
            <g id="编组" transform="translate(0.000000, 280.000000)">
                <path d="M454,0 C704.737274,0 908,148.974206 908,332.743203 C908,474.017066 787.874033,594.727601 618.400901,643 C600.270984,567.27741 532.216189,510.99849 451.03268,510.99849 C370.423251,510.99849 302.757515,566.484284 284.057003,641.390622 C117.51303,592.085055 0,472.472149 0,332.743203 C0,148.974206 203.262723,0 454,0 Z" id="形状结合" stroke-width="14" fill="url(#linearGradient-1)"></path>
                <path d="M464.741671,374.777143 C643.40467,374.777143 779.336032,464.152001 779.336032,534.366294 C779.336032,580.379149 717.137415,620.682811 623.980184,643 C614.579392,559.900594 540.687025,495.000982 452,495.000982 C363.817192,495.000982 291.991798,559.376415 281.924049,641.580987 C191.980407,619.005207 132.340081,579.422935 132.340081,534.366294 C132.340081,464.152001 286.078672,374.777143 464.741671,374.777143 Z" id="形状结合" stroke-width="10" fill="#FFFFFF"></path>
            </g>
            <path d="M457,274 C493.450792,274 523,201.883682 523,112.923695 C523,23.9637082 493.450792,0 457,0 C420.549208,0 391,23.9637082 391,112.923695 C391,201.883682 420.549208,274 457,274 Z" id="椭圆形" stroke-width="20" fill="#FFFFFF"></path>
        </g>
        <rect id="矩形" fill="#4A4A4A" fill-rule="nonzero" x="588" y="837" width="30" height="87"></rect>
        <g id="bell" transform="translate(479.000000, 887.000000)" fill="#4A4A4A" fill-rule="nonzero">
            <path d="M229.52381,207.795652 C210.301191,207.795652 202.841667,196.477174 202.841667,125.373913 C202.841667,69.6521738 177.880952,34.8260871 134.845238,29.6021739 L134.845238,11.6086955 C134.845238,5.22391295 129.680953,0 123.369048,0 C117.057143,0 111.892857,5.22391295 111.892857,11.6086955 L111.892857,29.0217391 C65.9880954,32.7945653 39.3059524,68.2010872 39.3059524,125.083696 C39.3059524,196.186957 30.9857143,207.505435 11.4761904,207.505435 C5.45119041,207.795652 0,212.148913 0,218.533696 C0,225.208696 5.16428562,229.561957 11.4761904,229.561957 L86.0714286,229.561957 C86.9321429,238.268478 89.5142857,249.006521 96.4,256.552174 C102.425,263.227174 110.458333,267 119.92619,267 C129.394047,267 137.427381,262.936957 143.452381,256.552174 C150.625,248.716304 153.494048,238.268478 154.641666,229.561957 L229.52381,229.561957 C235.835714,229.561957 241,225.208696 241,218.533696 C241,212.148913 235.835714,207.795652 229.52381,207.795652 Z M126.811905,240.880435 C125.664286,242.041304 123.942857,243.782609 119.92619,243.782609 C116.196429,243.782609 114.475,242.041304 113.327381,240.880435 C111.319047,238.268478 109.884523,235.366304 109.310714,229.561957 L131.97619,229.561957 C130.828571,235.366304 129.394047,238.268478 126.811905,240.880435 Z M122.221429,206.344565 L51.0690475,206.344565 C61.684524,186.029348 61.684524,154.395652 61.684524,124.793479 C61.684524,77.4880433 82.0547617,52.5293476 118.778571,52.5293476 L121.934524,52.5293476 C158.658333,52.5293476 179.028571,77.4880433 179.028571,124.793479 C179.028571,154.395652 179.028571,186.029348 189.644047,206.344565 L122.221429,206.344565 Z M162.961905,103.317391 C163.248809,108.831521 158.945238,113.765217 153.494048,114.055435 L152.920238,114.055435 C147.755953,114.055435 143.165476,109.992391 142.878571,104.478261 C142.017857,91.4184781 131.97619,86.775 130.828571,86.1945652 C125.664286,83.8728262 123.369048,78.0684781 125.377381,72.8445652 C127.385714,67.6206519 133.123809,65.2989128 138.288095,67.3304348 C139.435714,67.9108695 161.527381,77.1978262 162.961905,103.317391 L162.961905,103.317391 Z" id="形状"></path>
        </g>
    </g>
</svg>