<?xml version="1.0" encoding="UTF-8"?>
<svg width="512px" height="512px" viewBox="0 0 512 512" version="1.1" xmlns="http://www.w3.org/2000/svg" xmlns:xlink="http://www.w3.org/1999/xlink">
    <title>画板</title>
    <defs>
        <linearGradient x1="50%" y1="24.986944%" x2="100%" y2="101.643429%" id="linearGradient-1">
            <stop stop-color="#80C3F3" offset="0%"></stop>
            <stop stop-color="#4A90E2" offset="100%"></stop>
        </linearGradient>
        <linearGradient x1="50%" y1="-22.1292312%" x2="50%" y2="111.915064%" id="linearGradient-2">
            <stop stop-color="#EEEEEE" offset="0%"></stop>
            <stop stop-color="#E5E5E5" offset="40.9516021%"></stop>
            <stop stop-color="#D8D8D8" offset="100%"></stop>
        </linearGradient>
    </defs>
    <g id="画板" stroke="none" stroke-width="1" fill="none" fill-rule="evenodd">
        <g id="编组" transform="translate(180.000000, 81.000000)" stroke="#4A4A4A" stroke-width="5">
            <path d="M76.5,0 C118.749783,0 153,25.072054 153,56 C153,79.7761021 132.75851,100.091438 104.201914,108.215584 C101.146983,95.4716271 89.6796001,86 76,86 C62.4171337,86 51.0153081,95.3381456 47.8642307,107.944729 C19.8012044,99.646703 0,79.5160957 0,56 C0,25.072054 34.2502166,0 76.5,0 Z" id="形状结合" fill="url(#linearGradient-1)"></path>
            <path d="M78,62.5114628 C108.099519,62.5114628 131,77.6258779 131,89.5 C131,97.2813537 120.521342,104.097211 104.827058,107.871329 C103.243298,93.818172 90.9411842,86 76,86 C61.1437616,86 48.8966709,93.7295267 47.2005479,107.631356 C32.0476603,103.813507 22,97.1196459 22,89.5 C22,77.6258779 47.9004811,62.5114628 78,62.5114628 Z" id="形状结合" fill="#FFFFFF"></path>
        </g>
        <g id="bell" transform="translate(233.000000, 169.000000)" fill="#4A4A4A" fill-rule="nonzero">
            <path d="M46.6666667,42.026087 C42.7583334,42.026087 41.2416667,39.7369565 41.2416667,25.3565218 C41.2416667,14.0869565 36.1666666,7.04347829 27.4166667,5.98695652 L27.4166667,2.34782606 C27.4166667,1.05652172 26.3666667,0 25.0833334,0 C23.8,0 22.75,1.05652172 22.75,2.34782606 L22.75,5.86956521 C13.4166667,6.63260871 7.99166668,13.7934783 7.99166668,25.2978261 C7.99166668,39.6782609 6.30000001,41.9673913 2.33333331,41.9673913 C1.10833332,42.026087 0,42.9065217 0,44.1978261 C0,45.5478261 1.04999998,46.4282609 2.33333331,46.4282609 L17.5,46.4282609 C17.675,48.1891304 18.2,50.3608695 19.6,51.8869565 C20.825,53.2369565 22.4583333,54 24.3833333,54 C26.3083333,54 27.9416667,53.1782609 29.1666667,51.8869565 C30.625,50.3021739 31.2083334,48.1891304 31.4416666,46.4282609 L46.6666667,46.4282609 C47.95,46.4282609 49,45.5478261 49,44.1978261 C49,42.9065217 47.95,42.0260869 46.6666667,42.026087 Z M25.7833333,48.7173913 C25.55,48.9521739 25.2,49.3043478 24.3833333,49.3043478 C23.625,49.3043478 23.275,48.9521739 23.0416667,48.7173913 C22.6333333,48.1891304 22.3416666,47.6021739 22.225,46.4282609 L26.8333333,46.4282609 C26.6,47.6021739 26.3083333,48.1891304 25.7833333,48.7173913 Z M24.85,41.7326087 L10.3833333,41.7326087 C12.5416667,37.623913 12.5416667,31.226087 12.5416667,25.2391305 C12.5416667,15.6717391 16.6833333,10.623913 24.15,10.623913 L24.7916667,10.623913 C32.2583333,10.623913 36.4,15.6717391 36.4,25.2391305 C36.4,31.226087 36.4,37.623913 38.5583333,41.7326087 L24.85,41.7326087 Z M33.1333333,20.8956521 C33.1916666,22.0108695 32.3166667,23.0086956 31.2083334,23.0673913 L31.0916667,23.0673913 C30.0416667,23.0673913 29.1083333,22.2456522 29.05,21.1304348 C28.875,18.4891304 26.8333333,17.55 26.6,17.4326087 C25.55,16.9630435 25.0833334,15.7891304 25.4916666,14.7326087 C25.9,13.6760869 27.0666666,13.2065217 28.1166667,13.6173913 C28.35,13.7347826 32.8416667,15.6130435 33.1333333,20.8956521 L33.1333333,20.8956521 Z" id="形状"></path>
        </g>
        <path d="M211.346497,247 L303.178772,247 C307.320907,247.00151 310.677548,250.360597 310.676039,254.502732 C310.675697,255.441444 310.499136,256.371749 310.155045,257.245122 C306.310343,267.022025 304.387992,283.568423 304.387992,306.884318 C304.387992,334.176228 319.026621,373.202942 324.294386,422.765552 C325.300902,432.235513 323.877377,449.203112 320.023813,473.668349 C319.449117,477.31327 316.308418,479.998544 312.618469,480 L264,480 L264,480 L218.624329,480 C214.482193,479.998843 211.125266,476.640042 211.126422,472.497906 C211.12659,471.898962 211.198502,471.302194 211.339949,470.720191 C216.903898,447.904076 219.294889,431.919196 218.512924,422.765552 C214.219806,372.51051 197.299791,334.306101 197.299791,306.884318 C197.299791,276.367307 199.958283,257.439061 205.275269,250.099581 C206.685574,248.153406 208.94305,247.000794 211.346497,247 Z" id="矩形" stroke="#4A4A4A" stroke-width="4" fill="url(#linearGradient-2)"></path>
        <rect id="矩形" fill="#4A4A4A" x="255" y="220" width="5" height="29"></rect>
        <path d="M258,79 C264.075132,79 269,66.8928809 269,51.9579926 C269,37.0231043 264.075132,33 258,33 C251.924868,33 247,37.0231043 247,51.9579926 C247,66.8928809 251.924868,79 258,79 Z" id="椭圆形" stroke="#4A4A4A" stroke-width="6" fill="#FFFFFF"></path>
        <rect id="矩形" fill="#4A4A4A" x="255" y="167" width="6" height="10"></rect>
    </g>
</svg>