<?xml version="1.0" encoding="UTF-8"?>
<svg width="1200px" height="1200px" viewBox="0 0 1200 1200" version="1.1" xmlns="http://www.w3.org/2000/svg" xmlns:xlink="http://www.w3.org/1999/xlink">
    <title>画板</title>
    <g id="画板" stroke="none" stroke-width="1" fill="none" fill-rule="evenodd">
        <g id="undraw_docusaurus_mountain" transform="translate(56.000000, 233.884791)" fill-rule="nonzero">
            <g id="Group_11">
                <path d="M961.81,498.557555 C956.54,543.707555 945.59,579.957555 930.56,608.867555 C910.56,647.387555 876.35,662.907555 845.79,679.147555 C836.959208,683.831683 827.778329,687.82366 818.33,691.087555 C762.72,710.387555 700.48,705.267555 651.59,695.077555 C617.299435,687.924245 582.491905,683.523562 547.5,681.917555 C537.52,681.467555 527.53,681.244221 517.53,681.247555 C502.11,681.267555 224.46,686.537555 156.86,549.677555 C140.17,515.917555 128.73,474.677555 124.62,424.407555 C112.99,282.287555 176.91,188.947555 259.36,127.937555 C415.33,12.5275546 650.8615,-56.9531615 804.5315,61.4968385 C906.8915,140.396838 980.99,334.127555 961.81,498.557555 Z" id="Path_83" fill="#3F3D56"></path>
                <polygon id="Path_85" fill="#000000" opacity="0.1" points="302 327.077555 328 270.077555 364 353.077555 333 293.077555"></polygon>
                <path d="M554.5,691.917555 C544.52,691.467555 534.53,691.244221 524.53,691.247555 L409.04,435.287555 L554.5,691.917555 Z" id="Path_86" fill="#000000" opacity="0.1"></path>
                <polygon id="Path_87" fill="#000000" opacity="0.1" points="464.411 359.306555 493 337.077555 623 487.077555 491 359.077555"></polygon>
                <circle id="Ellipse_11" fill="#F2F2F2" cx="482" cy="146.077555" r="3"></circle>
                <circle id="Ellipse_12" fill="#F2F2F2" cx="399" cy="249.077555" r="3"></circle>
                <circle id="Ellipse_13" fill="#F2F2F2" cx="602" cy="267.077555" r="2"></circle>
                <circle id="Ellipse_14" fill="#F2F2F2" cx="182" cy="312.077555" r="2"></circle>
                <circle id="Ellipse_15" fill="#F2F2F2" cx="614" cy="143.077555" r="2"></circle>
                <circle id="Ellipse_16" fill="#F2F2F2" cx="738" cy="239.077555" r="2"></circle>
                <circle id="Ellipse_17" fill="#F2F2F2" cx="860" cy="391.077555" r="2"></circle>
                <polygon id="Path_89" fill="#F2F2F2" points="306 165.337555 303.24 165.337555 303.24 162.577555 301.76 162.577555 301.76 165.337555 299 165.337555 299 166.815555 301.76 166.815555 301.76 169.574555 303.24 169.574555 303.24 166.815555 306 166.815555"></polygon>
                <polygon id="Path_90" fill="#F2F2F2" points="848 468.337555 845.24 468.337555 845.24 465.577555 843.76 465.577555 843.76 468.337555 841 468.337555 841 469.815555 843.76 469.815555 843.76 472.574555 845.24 472.574555 845.24 469.815555 848 469.815555"></polygon>
                <path d="M1088,658.077555 C1088,674.646555 844.443,732.077555 544,732.077555 C243.557,732.077555 0,674.646555 0,658.077555 C0,641.508555 243.557,672.077555 544,672.077555 C844.443,672.077555 1088,641.509555 1088,658.077555 Z" id="Path_91" fill="#3F3D56"></path>
                <path d="M1088,658.077555 C1088,674.646555 844.443,732.077555 544,732.077555 C243.557,732.077555 0,674.646555 0,658.077555 C0,641.508555 243.557,672.077555 544,672.077555 C844.443,672.077555 1088,641.509555 1088,658.077555 Z" id="Path_92" fill="#000000" opacity="0.1"></path>
                <ellipse id="Ellipse_18" fill="#3F3D56" cx="544" cy="658.077555" rx="544" ry="30"></ellipse>
                <path d="M550,628.756555 C550,643.818555 543.284,639.665555 535,639.665555 C526.716,639.665555 520,643.818555 520,628.756555 C520,613.694555 535,585.120555 535,585.120555 C535,585.120555 550,613.696555 550,628.756555 Z" id="Path_94" fill="#000000" opacity="0.1"></path>
                <rect id="Rectangle_97" fill="#2F2E41" x="489" y="649.077555" width="92" height="18" rx="9"></rect>
                <rect id="Rectangle_98" fill="#2F2E41" x="489" y="631.077555" width="92" height="18" rx="9"></rect>
                <path d="M137,534.643555 C137,589.986555 171.719,634.769555 214.626,634.769555" id="Path_95" fill="#3F3D56"></path>
                <path d="M214.626,634.769555 C214.626,578.804555 253.371,533.518555 301.252,533.518555" id="Path_96" fill="#6C63FF"></path>
                <path d="M214.626,634.769555 C214.626,563.258555 259.409,505.392555 314.752,505.392555" id="Path_98" fill="#3F3D56"></path>
                <path d="M198.3,635.475555 C198.3,635.475555 209.309,635.136555 212.626,632.775555 C215.943,630.414555 229.56,627.592555 230.383,631.380555 C231.206,635.168555 246.927,650.224555 234.498,650.325555 C222.069,650.426555 205.619,648.389555 202.308,646.372555 C198.997,644.355555 198.3,635.475555 198.3,635.475555 Z" id="Path_99" fill="#A8A8A8"></path>
                <path d="M234.716,649.005555 C222.287,649.105555 205.837,647.069555 202.526,645.052555 C200.004,643.516555 198.999,638.004555 198.663,635.461555 L198.295,635.475555 C198.295,635.475555 198.995,644.354555 202.304,646.375555 C205.613,648.396555 222.065,650.428555 234.494,650.328555 C238.082,650.299555 239.321,649.023555 239.253,647.128555 C238.755,648.270555 237.386,648.983555 234.716,649.005555 Z" id="Path_100" fill="#000000" opacity="0.2"></path>
                <path d="M721.429,571.177555 C721.429,609.206555 745.286,639.977555 774.77,639.977555" id="Path_101" fill="#3F3D56"></path>
                <path d="M788.574,649.760555 C780.034,649.829555 768.73,648.430555 766.455,647.044555 C764.722,645.988555 764.032,642.201555 763.801,640.454555 L763.548,640.464555 C763.548,640.464555 764.027,646.564555 766.303,647.951555 C768.579,649.338555 779.882,650.736555 788.422,650.667555 C790.887,650.647555 791.739,649.767555 791.692,648.467555 C791.349,649.255555 790.409,649.745555 788.574,649.760555 Z" id="Path_106" fill="#000000" opacity="0.2"></path>
                <path d="M893.813,662.814555 C893.813,662.814555 905.173,661.085555 908.313,658.223555 C911.453,655.361555 925.203,650.735555 926.53,654.556555 C927.857,658.377555 946.024,672.003555 933.163,673.663555 C920.302,675.323555 903.01,675.272555 899.328,673.598555 C895.646,671.924555 893.813,662.814555 893.813,662.814555 Z" id="Path_107" fill="#A8A8A8"></path>
                <path d="M933.228,672.269555 C920.368,673.928555 903.075,673.878555 899.393,672.204555 C896.593,670.929555 894.858,665.346555 894.193,662.754555 L893.814,662.815555 C893.814,662.815555 895.647,671.924555 899.33,673.598555 C903.013,675.272555 920.305,675.323555 933.165,673.663555 C936.877,673.184555 938.001,671.707555 937.694,669.757555 C937.319,671.003555 935.991,671.913555 933.228,672.269555 Z" id="Path_108" fill="#000000" opacity="0.2"></path>
                <path d="M614.26,661.996555 C614.26,661.996555 623.847,660.537555 626.497,658.121555 C629.147,655.705555 640.752,651.801555 641.871,655.026555 C642.99,658.251555 658.323,669.751555 647.471,671.151555 C636.619,672.551555 622.023,672.509555 618.916,671.096555 C615.809,669.683555 614.26,661.996555 614.26,661.996555 Z" id="Path_109" fill="#A8A8A8"></path>
                <path d="M647.524,669.971555 C636.671,671.371555 622.076,671.329555 618.969,669.916555 C616.602,668.840555 615.142,664.128555 614.579,661.940555 L614.259,661.991555 C614.259,661.991555 615.806,669.678555 618.914,671.091555 C622.022,672.504555 636.614,672.547555 647.469,671.146555 C650.602,670.746555 651.55,669.495555 651.291,667.846555 C650.977,668.903555 649.856,669.671555 647.524,669.971555 Z" id="Path_110" fill="#000000" opacity="0.2"></path>
                <path d="M122.389,657.205555 C122.389,657.205555 129.852,656.069555 131.916,654.189555 C133.98,652.309555 143.016,649.269555 143.885,651.780555 C144.754,654.291555 156.693,663.243555 148.243,664.333555 C139.793,665.423555 128.432,665.390555 126.013,664.290555 C123.594,663.190555 122.389,657.205555 122.389,657.205555 Z" id="Path_111" fill="#A8A8A8"></path>
                <path d="M148.285,663.417555 C139.836,664.507555 128.474,664.474555 126.055,663.374555 C124.213,662.536555 123.076,658.868555 122.638,657.165555 L122.389,657.205555 C122.389,657.205555 123.589,663.189555 126.013,664.290555 C128.437,665.391555 139.794,665.423555 148.243,664.333555 C150.682,664.018555 151.42,663.048555 151.219,661.767555 C150.973,662.585555 150.1,663.183555 148.285,663.417555 Z" id="Path_112" fill="#000000" opacity="0.2"></path>
                <path d="M383.7,645.433555 C383.7,675.653555 341.576,666.306555 290,666.306555 C238.424,666.306555 196.926,675.653555 196.926,645.433555 C196.926,615.213555 239.044,608.640555 290.62,608.640555 C342.196,608.640555 383.7,615.213555 383.7,645.433555 Z" id="Path_113" fill="#000000" opacity="0.1"></path>
                <path d="M383.7,637.996555 C383.7,668.216555 341.576,658.869555 290,658.869555 C238.424,658.869555 196.926,668.216555 196.926,637.996555 C196.926,607.776555 239.04,601.196555 290.616,601.196555 C342.192,601.196555 383.7,607.772555 383.7,637.996555 Z" id="Path_114" fill="#3F3D56"></path>
            </g>
        </g>
        <g id="@" transform="translate(456.005525, 442.988950)" fill="#1E8AE3" fill-rule="nonzero">
            <path d="M87.5138122,122.872928 C95.174954,104.309392 105.561694,90.3867403 118.674033,81.1049724 C131.786372,71.8232044 144.972376,67.1823204 158.232044,67.1823204 C167.071823,67.1823204 174.80663,69.3186004 181.436464,73.5911602 C188.066298,77.8637201 193.59116,83.4622468 198.01105,90.3867403 C202.430939,97.3112339 205.672192,105.19337 207.734807,114.033149 C209.797422,122.872928 210.828729,131.712707 210.828729,140.552486 C210.828729,150.276243 209.944751,158.674033 208.176796,165.745856 L211.712707,165.745856 C222.025783,165.745856 229.3186,161.915285 233.59116,154.254144 C237.86372,146.593002 240,137.458564 240,126.850829 C240,110.644567 237.569061,97.0165746 232.707182,85.9668508 C227.845304,74.9171271 221.436464,65.9300184 213.480663,59.0055249 C205.524862,52.0810313 196.390424,47.145488 186.077348,44.198895 C175.764273,41.252302 165.156538,39.7790055 154.254144,39.7790055 C136.869245,39.7790055 121.325967,42.946593 107.624309,49.281768 C93.9226519,55.6169429 82.3572744,64.0883978 72.9281768,74.6961326 C63.4990792,85.3038674 56.2799263,97.5322284 51.2707182,111.381215 C46.2615101,125.230203 43.7569061,139.815838 43.7569061,155.138122 C43.7569061,173.996317 46.4088398,189.834254 51.7127072,202.651934 C57.0165746,215.469613 63.9410681,225.856354 72.4861878,233.812155 C81.0313076,241.767956 90.8287293,247.440147 101.878453,250.828729 C112.928177,254.217311 124.051565,255.911602 135.248619,255.911602 C151.160221,255.911602 166.998158,253.480663 182.762431,248.618785 C198.526703,243.756906 213.480663,237.937385 227.624309,231.160221 C232.338858,229.392265 236.464088,228.508287 240,228.508287 C246.187845,228.508287 251.270718,230.423573 255.248619,234.254144 C259.226519,238.084715 261.21547,242.357274 261.21547,247.071823 C261.21547,251.491713 259.07919,255.764273 254.80663,259.889503 C250.53407,264.014733 244.861878,267.845304 237.790055,271.381215 C230.718232,274.917127 222.615101,278.158379 213.480663,281.104972 C204.346225,284.051565 195.138122,286.556169 185.856354,288.618785 C176.574586,290.6814 167.513812,292.302026 158.674033,293.480663 C149.834254,294.6593 142.025783,295.248619 135.248619,295.248619 C112.559853,295.248619 92.7440147,291.197053 75.801105,283.093923 C58.8581952,274.990792 44.7882136,264.383057 33.5911602,251.270718 C22.3941068,238.158379 13.9963168,223.35175 8.39779006,206.850829 C2.79926335,190.349908 0,173.554328 0,156.464088 C0,134.953959 3.90423573,114.696133 11.7127072,95.6906077 C19.5211786,76.6850829 30.2025783,60.1104972 43.7569061,45.9668508 C57.3112339,31.8232044 73.2965009,20.626151 91.7127072,12.3756906 C110.128913,4.1252302 130.092081,0 151.60221,0 C169.576427,0 186.519337,2.6519337 202.430939,7.9558011 C218.342541,13.2596685 232.265193,21.2154696 244.198895,31.8232044 C256.132597,42.4309392 265.561694,55.6169429 272.486188,71.3812155 C279.410681,87.145488 282.872928,105.3407 282.872928,125.966851 C282.872928,135.395948 281.694291,144.751381 279.337017,154.033149 C276.979742,163.314917 273.001842,171.712707 267.403315,179.226519 C261.804788,186.740331 254.585635,192.854512 245.745856,197.569061 C236.906077,202.28361 226.003683,204.640884 213.038674,204.640884 C209.502762,204.640884 205.524862,204.493554 201.104972,204.198895 C196.685083,203.904236 192.854512,203.167587 189.61326,201.98895 C183.130755,209.355433 175.616943,215.248619 167.071823,219.668508 C158.526703,224.088398 149.834254,226.298343 140.994475,226.298343 C133.333333,226.298343 125.966851,224.530387 118.895028,220.994475 C111.823204,217.458564 105.561694,212.596685 100.110497,206.40884 C94.6593002,200.220994 90.3130755,192.928177 87.0718232,184.530387 C83.8305709,176.132597 82.2099448,167.071823 82.2099448,157.348066 C82.2099448,146.151013 83.8305709,134.80663 87.0718232,123.314917 L87.5138122,122.872928 Z M136.574586,119.779006 C132.449355,124.788214 129.502762,130.53407 127.734807,137.016575 C125.966851,143.499079 125.082873,149.834254 125.082873,156.022099 C125.082873,158.968692 125.377532,162.209945 125.966851,165.745856 C126.556169,169.281768 127.513812,172.596685 128.839779,175.690608 C130.165746,178.78453 132.007366,181.362799 134.364641,183.425414 C136.721915,185.488029 139.521179,186.519337 142.762431,186.519337 C147.18232,186.519337 150.939227,185.119705 154.033149,182.320442 C157.127072,179.521179 159.705341,175.911602 161.767956,171.491713 C163.830571,167.071823 165.303867,162.062615 166.187845,156.464088 C167.071823,150.865562 167.513812,145.267035 167.513812,139.668508 C167.513812,135.837937 167.366483,131.933702 167.071823,127.955801 C166.777164,123.977901 166.187845,120.368324 165.303867,117.127072 C164.41989,113.88582 163.241252,111.233886 161.767956,109.171271 C160.294659,107.108656 158.526703,106.077348 156.464088,106.077348 C153.222836,106.077348 149.686924,107.771639 145.856354,111.160221 C142.025783,114.548803 138.93186,117.421731 136.574586,119.779006 Z" id="形状"></path>
        </g>
    </g>
</svg>