<?xml version="1.0" encoding="UTF-8"?>
<svg width="1200px" height="1200px" viewBox="0 0 1200 1200" version="1.1" xmlns="http://www.w3.org/2000/svg" xmlns:xlink="http://www.w3.org/1999/xlink">
    <title>画板</title>
    <defs>
        <linearGradient x1="50%" y1="24.9261946%" x2="100%" y2="101.768856%" id="linearGradient-1">
            <stop stop-color="#80C3F3" offset="0%"></stop>
            <stop stop-color="#4A90E2" offset="100%"></stop>
        </linearGradient>
        <linearGradient x1="28.4286331%" y1="-34.2023634%" x2="158.344986%" y2="310.80655%" id="linearGradient-2">
            <stop stop-color="#9ED5F7" offset="0%"></stop>
            <stop stop-color="#2783DA" offset="100%"></stop>
        </linearGradient>
    </defs>
    <g id="画板" stroke="none" stroke-width="1" fill="none" fill-rule="evenodd">
        <g id="编组-2" transform="translate(146.000000, 23.000000)" fill-rule="nonzero">
            <g id="编组" transform="translate(0.000000, 280.000000)">
                <rect id="矩形" fill="#000000" x="442" y="511" width="30" height="87"></rect>
                <path d="M454,0 C704.737274,0 908,148.974206 908,332.743203 C908,474.017066 787.874033,594.727601 618.400901,643 C600.270984,567.27741 532.216189,510.99849 451.03268,510.99849 C370.423251,510.99849 302.757515,566.484284 284.057003,641.390622 C117.51303,592.085055 0,472.472149 0,332.743203 C0,148.974206 203.262723,0 454,0 Z" id="形状结合" stroke="#000000" stroke-width="14" fill="url(#linearGradient-1)"></path>
                <path d="M464.741671,374.777143 C643.40467,374.777143 779.336032,464.152001 779.336032,534.366294 C779.336032,580.379149 717.137415,620.682811 623.980184,643 C645.093782,559.900594 542.687025,477.293891 454,477.293891 C365.817192,477.293891 262.294523,559.900594 281.924049,641.580987 C191.980407,619.005207 132.340081,579.422935 132.340081,534.366294 C132.340081,464.152001 286.078672,374.777143 464.741671,374.777143 Z" id="形状结合" stroke="#000000" stroke-width="10" fill="#FFFFFF"></path>
            </g>
            <path d="M457,274 C493.450792,274 523,201.883682 523,112.923695 C523,23.9637082 493.450792,0 457,0 C420.549208,0 391,23.9637082 391,112.923695 C391,201.883682 420.549208,274 457,274 Z" id="椭圆形" stroke="#000000" stroke-width="20" fill="#FFFFFF"></path>
        </g>
        <g id="bell" transform="translate(451.000000, 848.000000)" fill-rule="nonzero">
            <path d="M282.857143,256.047826 C259.167858,256.047826 249.975,242.101087 249.975,154.486957 C249.975,85.8260868 219.214285,42.9130437 166.178572,36.4760869 L166.178572,14.3043477 C166.178572,6.43695641 159.814286,0 152.035715,0 C144.257143,0 137.892857,6.43695641 137.892857,14.3043477 L137.892857,35.7608695 C81.3214288,40.4097827 48.4392858,84.0380437 48.4392858,154.129348 C48.4392858,241.743478 38.1857143,255.690217 14.142857,255.690217 C6.71785706,256.047826 0,261.411956 0,269.279348 C0,277.504348 6.36428559,282.868478 14.142857,282.868478 L106.071429,282.868478 C107.132143,293.596739 110.314286,306.82826 118.8,316.126087 C126.225,324.351087 136.125,329 147.792857,329 C159.460714,329 169.360714,323.993478 176.785714,316.126087 C185.625,306.470652 189.160715,293.596739 190.575,282.868478 L282.857143,282.868478 C290.635714,282.868478 297,277.504348 297,269.279348 C297,261.411956 290.635714,256.047826 282.857143,256.047826 Z" id="形状-path" fill="#000000"></path>
            <path d="M156.620253,297.326531 C155.202532,298.795918 153.075949,301 148.113924,301 C143.506329,301 141.379747,298.795918 139.962026,297.326531 C137.481012,294.020408 135.70886,290.346939 135,283 L163,283 C161.582279,290.346939 159.810127,294.020408 156.620253,297.326531 Z" id="形状-path" fill="#FFFFFF"></path>
            <path d="M150.801242,254 L63,254 C76.0993793,228.90566 76.0993793,189.830189 76.0993793,153.264151 C76.0993793,94.8301887 101.236025,64 146.552795,64 L150.447205,64 C195.763975,64 220.900621,94.8301887 220.900621,153.264151 C220.900621,189.830189 220.900621,228.90566 234,254 L150.801242,254 Z" id="形状-path" fill="url(#linearGradient-2)"></path>
            <path d="M200.983374,126.876025 C201.335263,133.615364 196.056926,139.645298 189.371033,140 L188.667254,140 C182.333249,140 176.703023,135.034172 176.351134,128.294834 C175.295466,112.333243 162.979346,106.658011 161.571789,105.948607 C155.237785,103.110992 152.422672,96.016951 154.885895,89.6323152 C157.349119,83.2476787 164.386902,80.4100627 170.720907,82.892977 C172.128464,83.602381 199.223929,94.9528454 200.983374,126.876025 L200.983374,126.876025 Z" id="形状-path" fill="#FFFFFF"></path>
        </g>
    </g>
</svg>