<?xml version="1.0" encoding="UTF-8"?>
<svg width="1140px" height="922px" viewBox="0 0 1140 922" version="1.1" xmlns="http://www.w3.org/2000/svg" xmlns:xlink="http://www.w3.org/1999/xlink">
    <title>画板</title>
    <g id="画板" stroke="none" stroke-width="1" fill="none" fill-rule="evenodd">
        <g id="undraw_docusaurus_react" transform="translate(70.000000, 190.000000)">
            <g id="Group_23" fill-rule="nonzero">
                <path d="M925.20281,421.458427 C924.086565,423.86305 922.973527,426.235612 921.863697,428.576112 C920.131593,432.211903 918.421942,435.777158 916.734744,439.271877 C915.984165,440.820454 915.233587,442.340176 914.502254,443.859898 C906.226644,460.759591 898.499534,475.70673 891.936783,487.999165 C879.807281,510.685832 856.266929,524.956381 830.533684,525.222735 L684.603894,526.809786 L683.064245,526.809786 L670.554603,526.944445 L659.854047,527.059867 L627.040293,527.415751 L625.712346,527.415751 L609.007162,527.598503 L608.497153,527.598503 L505.533173,528.714248 L413.625792,529.676097 L402.934859,529.791519 L336.537526,530.512906 L336.460543,530.512906 L293.398505,530.974594 L292.93661,530.974594 L156.773963,532.446223 L116.040643,532.888674 C112.572265,532.92828 109.10473,532.75482 105.65764,532.369275 L105.65764,532.369275 C104.483658,532.234617 103.309676,532.080721 102.145317,531.897969 C83.1479689,528.966772 65.728907,519.617851 52.7899659,505.408638 C35.2668436,486.142796 22.5166311,463.664376 13.9523374,439.271877 C12.7142035,435.751508 11.5594673,432.186253 10.4881287,428.576112 C-19.159724,328.399503 16.98352,199.155806 82.0336609,112.666312 C84.7601214,109.049759 87.5314884,105.522978 90.3477617,102.085969 L90.4151213,102.009021 C110.420926,77.4626259 132.851678,56.9559978 156.745095,42.3743616 C199.085423,16.4909957 245.996583,9.2001776 292.137918,30.9283544 C331.177625,49.3189139 367.628799,57.9659396 402.963727,60.312852 C406.533787,60.5436958 410.103846,60.7168287 413.65466,60.8226322 C494.707521,63.3715329 570.669919,34.1794052 659.873293,15.3367764 C663.424107,14.586534 666.984543,13.84591 670.573848,13.1437599 C734.209437,0.485822503 804.802312,-6.18941198 888.751636,7.84397002 C897.473342,9.26814088 906.07966,11.3255315 914.502254,13.9998059 C918.203825,15.192499 921.770677,16.4749648 925.20281,17.8472033 C965.272157,34.1409312 987.12554,64.2468158 996.411544,101.970547 C997.290426,105.471679 998.050628,109.033728 998.692148,112.656694 C1015.15676,203.397561 966.936902,332.112241 925.20281,421.458427 Z" id="Path_299" fill="#F2F2F2"></path>
                <path d="M478.262152,428.576112 C477.874262,432.173771 477.273387,435.745288 476.462688,439.271877 L566.628342,439.271877 L566.628342,428.576112 L478.262152,428.576112 Z M402.963727,488.98987 L413.65466,488.903303 L413.65466,462.481302 C409.988373,462.317787 406.418313,462.154273 402.963727,461.98114 L402.963727,488.98987 Z M178.829425,428.576112 L178.829425,439.271877 L369.842043,439.271877 L369.842043,428.576112 L178.829425,428.576112 Z M996.459658,102.009021 L925.250924,102.009021 L925.250924,17.8568217 C921.818791,16.4653464 918.251939,15.1828806 914.550368,14.0094243 L914.550368,102.009021 L670.573848,102.009021 L670.573848,13.1149045 C666.984543,13.8170545 663.424107,14.5576785 659.873293,15.307921 L659.873293,102.009021 L413.65466,102.009021 L413.65466,60.7937767 C410.103846,60.6879732 406.533787,60.5148404 402.963727,60.2839965 L402.963727,102.009021 L156.745095,102.009021 L156.745095,42.3743616 C132.851678,56.9559978 110.420926,77.4626259 90.4151213,102.009021 L90.3477617,102.009021 L90.3477617,102.085969 C87.5250732,105.548627 84.7537062,109.075408 82.0336609,112.666312 L90.3477617,112.666312 L90.3477617,428.576112 L10.4785059,428.576112 C11.5434293,432.186253 12.6981655,435.751508 13.9427146,439.271877 L90.3381389,439.271877 L90.3381389,529.320213 C94.1818869,530.495274 98.105308,531.392114 102.077957,532.003773 C103.242316,532.186524 104.416298,532.34042 105.59028,532.475079 L105.59028,532.475079 C109.037371,532.860624 112.504906,533.034084 115.973283,532.994478 L156.706604,532.552027 L156.706604,439.25264 L402.963727,439.25264 L402.963727,529.868467 L413.65466,529.753045 L413.65466,439.271877 L659.873293,439.271877 L659.873293,527.146433 L670.573848,527.031012 L670.573848,439.271877 L914.502254,439.271877 L914.502254,443.859898 C915.233587,442.340176 915.984165,440.820454 916.734744,439.271877 C918.421942,435.777158 920.131593,432.211903 921.863697,428.576112 C922.973527,426.242024 924.086565,423.869463 925.20281,421.458427 L925.20281,112.704786 L998.740262,112.704786 C998.092327,109.056171 997.332125,105.490916 996.459658,102.009021 Z M156.745095,428.576112 L156.745095,112.666312 L402.963727,112.666312 L402.963727,428.576112 L156.745095,428.576112 Z M413.673906,428.576112 L413.673906,112.666312 L659.873293,112.666312 L659.873293,428.576112 L413.673906,428.576112 Z M914.5215,428.576112 L670.573848,428.576112 L670.573848,112.666312 L914.502254,112.666312 L914.5215,428.576112 Z" id="Path_300" fill="#000000" opacity="0.1"></path>
                <polygon id="Path_301" fill="#65617D" points="830.524062 513.257329 830.524062 525.76137 684.334455 527.10796 682.775561 527.136815 627.213503 527.646595 625.885556 527.665832 608.997539 527.81011 608.497153 527.81011 505.552418 528.76234 336.566394 530.330155 336.422052 530.330155 293.456242 530.734132 292.994347 530.74375 102.077957 532.494316 102.077957 518.066576 146.968328 491.134794 237.037754 490.384551 238.962314 490.374933 239.597419 490.365314 241.52198 490.336459 284.766851 489.980575 286.701035 489.970956 287.316894 489.961338 289.241454 489.951719 303.107912 489.836297 303.473578 489.826679 337.682639 489.538124 337.9617 489.538124 604.898225 487.287396 611.432108 487.239304 612.086458 487.239304 617.07107 487.191212 653.300919 486.893038 655.225479 486.864183 657.005698 486.844946 657.929487 486.844946 669.197788 486.758379 671.430278 486.729524 674.422969 486.710287 683.805201 486.62372 698.691676 486.49868 700.616236 486.479443 703.964971 486.460206 704.590453 486.460206 776.482406 485.844622"></polygon>
                <polygon id="Path_302" fill="#000000" opacity="0.2" points="830.524062 513.257329 830.524062 525.76137 684.334455 527.10796 682.775561 527.136815 627.213503 527.646595 625.885556 527.665832 608.997539 527.81011 608.497153 527.81011 505.552418 528.76234 336.566394 530.330155 336.422052 530.330155 293.456242 530.734132 292.994347 530.74375 102.077957 532.494316 102.077957 518.066576 146.968328 491.134794 237.037754 490.384551 238.962314 490.374933 239.597419 490.365314 241.52198 490.336459 284.766851 489.980575 286.701035 489.970956 287.316894 489.961338 289.241454 489.951719 303.107912 489.836297 303.473578 489.826679 337.682639 489.538124 337.9617 489.538124 604.898225 487.287396 611.432108 487.239304 612.086458 487.239304 617.07107 487.191212 653.300919 486.893038 655.225479 486.864183 657.005698 486.844946 657.929487 486.844946 669.197788 486.758379 671.430278 486.729524 674.422969 486.710287 683.805201 486.62372 698.691676 486.49868 700.616236 486.479443 703.964971 486.460206 704.590453 486.460206 776.482406 485.844622"></polygon>
                <path d="M284.920817,465.17448 L284.920817,488.73017 C284.921876,491.007464 283.610806,493.081772 281.552836,494.058816 C280.802073,494.422673 279.981333,494.619562 279.147135,494.635925 L245.563556,495.347694 C244.666652,495.369196 243.777074,495.18148 242.9654,494.79944 C240.870048,493.839469 239.527591,491.745872 239.530056,489.441939 L239.530056,465.17448 L284.920817,465.17448 Z" id="Path_303" fill="#3F3D56"></path>
                <path d="M284.920817,465.17448 L284.920817,488.73017 C284.921876,491.007464 283.610806,493.081772 281.552836,494.058816 C280.802073,494.422673 279.981333,494.619562 279.147135,494.635925 L245.563556,495.347694 C244.666652,495.369196 243.777074,495.18148 242.9654,494.79944 C240.870048,493.839469 239.527591,491.745872 239.530056,489.441939 L239.530056,465.17448 L284.920817,465.17448 Z" id="Path_304" fill="#000000" opacity="0.1"></path>
                <path d="M286.845377,465.17448 L286.845377,488.73017 C286.846437,491.007464 285.535367,493.081772 283.477396,494.058816 C282.726634,494.422673 281.905894,494.619562 281.071696,494.635925 L247.488117,495.347694 C246.591212,495.369196 245.701635,495.18148 244.88996,494.79944 C242.794609,493.839469 241.452151,491.745872 241.454617,489.441939 L241.454617,465.17448 L286.845377,465.17448 Z" id="Path_305" fill="#3F3D56"></path>
                <rect id="Rectangle_137" fill="#3F3D56" x="655.225479" y="465.164861" width="45.3907566" height="30.2982545"></rect>
                <rect id="Rectangle_138" fill="#000000" opacity="0.1" x="655.225479" y="465.164861" width="45.3907566" height="30.2982545"></rect>
                <rect id="Rectangle_139" fill="#3F3D56" x="653.300919" y="465.164861" width="45.3907566" height="30.2982545"></rect>
                <polygon id="Path_306" fill="#000000" opacity="0.1" points="286.835754 465.164861 286.835754 469.945253 241.444997 471.157183 241.444997 465.164861"></polygon>
                <path d="M366.955203,300.409686 L366.955203,462.192747 C366.930989,464.243853 365.301154,465.915273 363.250424,465.992052 L178.829425,470.897484 L178.781311,470.897484 C176.692915,470.871549 175.00625,469.18564 174.980304,467.098179 L174.980304,300.409686 C175.00625,298.322225 176.692915,296.636316 178.781311,296.610382 L363.154196,296.610382 C365.242592,296.636316 366.929257,298.322225 366.955203,300.409686 Z" id="Path_307" fill="#65617D"></path>
                <path d="M178.829425,296.610382 L178.829425,470.897484 L178.781311,470.897484 C176.692915,470.871549 175.00625,469.18564 174.980304,467.098179 L174.980304,300.409686 C175.00625,298.322225 176.692915,296.636316 178.781311,296.610382 L178.829425,296.610382 Z" id="Path_308" fill="#000000" opacity="0.1"></path>
                <polygon id="Path_309" fill="#39374D" points="187.239754 306.940644 358.044488 306.940644 358.044488 449.53481 187.239754 453.382207"></polygon>
                <polygon id="Path_310" fill="#000000" opacity="0.1" points="698.691676 465.164861 698.691676 471.330316 653.300919 470.118386 653.300919 465.164861"></polygon>
                <path d="M758.60324,300.409686 L758.60324,467.098179 C758.576901,469.204233 756.861281,470.897484 754.754119,470.897484 L754.754119,470.897484 L570.29463,465.992052 C568.2439,465.915273 566.614065,464.243853 566.589851,462.192747 L566.589851,300.409686 C566.615797,298.322225 568.302461,296.636316 570.390858,296.610382 L754.763742,296.610382 C756.867155,296.615474 758.576954,298.307374 758.60324,300.409686 Z" id="Path_311" fill="#65617D"></path>
                <path d="M758.60324,300.409686 L758.60324,467.098179 C758.576901,469.204233 756.861281,470.897484 754.754119,470.897484 L754.754119,470.897484 L754.754119,296.610382 L754.754119,296.610382 C756.861281,296.610382 758.576901,298.303633 758.60324,300.409686 Z" id="Path_312" fill="#000000" opacity="0.1"></path>
                <polygon id="Path_313" fill="#39374D" points="746.324545 306.940644 575.519811 306.940644 575.519811 449.53481 746.324545 453.382207"></polygon>
                <path d="M561.816941,300.409686 L561.816941,462.192747 C561.792727,464.243853 560.162893,465.915273 558.112162,465.992052 L373.691164,470.897484 L373.691164,470.897484 C371.584002,470.897484 369.868383,469.204233 369.842043,467.098179 L369.842043,300.409686 C369.867989,298.322225 371.554653,296.636316 373.64305,296.610382 L558.015934,296.610382 C560.104331,296.636316 561.790995,298.322225 561.816941,300.409686 Z" id="Path_314" fill="#65617D"></path>
                <polygon id="Path_315" fill="#4267B2" points="382.101493 306.940644 552.906227 306.940644 552.906227 449.53481 382.101493 453.382207"></polygon>
                <polygon id="Path_316" fill="#000000" opacity="0.1" points="830.524062 513.257329 830.524062 525.76137 684.334455 527.10796 682.775561 527.136815 627.213503 527.646595 625.885556 527.665832 608.997539 527.81011 608.497153 527.81011 505.552418 528.76234 336.566394 530.330155 336.422052 530.330155 293.456242 530.734132 292.994347 530.74375 102.077957 532.494316 102.077957 518.066576 296.949319 516.787316 297.411213 516.787316 336.855078 516.517998 337.037911 516.517998 609.440188 514.71934 609.719249 514.71934 609.882837 514.709721 610.335108 514.709721 614.944431 514.680866 616.34936 514.680866 688.029611 514.199941 692.263644 514.180704 693.206678 514.171086"></polygon>
                <ellipse id="Ellipse_111" fill="#FBBEBE" cx="468.870298" cy="286.741807" rx="49.3938422" ry="49.3717271"></ellipse>
                <path d="M518.273763,362.737524 C518.273763,362.737524 422.526884,374.279716 431.668545,362.737524 C434.978789,358.563098 435.892955,346.193715 435.710122,332.102623 C435.652385,327.822393 435.498421,323.388267 435.277096,318.973379 C434.218588,297.812693 431.668545,277.132932 431.668545,277.132932 C431.668545,277.132932 515.386922,237.697109 505.76412,268.957213 C501.914999,281.586295 503.175586,299.322797 506.100918,315.972409 C506.957348,320.829748 507.948496,325.590902 508.987759,330.111594 C511.524065,341.138171 514.623456,352.027732 518.273763,362.737524 L518.273763,362.737524 Z" id="Path_317" fill="#FBBEBE"></path>
                <path d="M487.028525,358.822797 C498.10437,356.774058 509.834565,353.051701 520.25606,357.341549 C522.998558,358.466913 525.519732,360.111676 528.329591,361.054288 C531.139449,361.9969 534.218745,362.227744 537.144077,362.89142 C547.42123,365.219096 555.754576,373.038931 561.104854,382.128407 C566.455132,391.217883 569.226499,401.500053 571.940129,411.676419 L578.579862,436.520988 C584.353543,458.114506 590.127224,479.890775 591.464794,502.215298 C511.082284,506.814412 430.516175,507.273501 350.086431,503.590743 C355.321235,493.645221 360.671513,483.093733 360.228864,471.849714 C359.786215,460.605696 353.310069,449.515573 355.64841,438.435068 C357.139945,431.375094 361.970591,425.555905 364.924791,418.986474 C373.344743,400.211175 366.791615,374.943393 381.591484,360.650311 C388.250463,354.225158 397.950248,351.791679 407.217006,352.09947 C419.033806,352.493829 431.129668,356.177712 442.821373,357.97637 C457.794453,360.246334 471.939971,361.592924 487.028525,358.822797 Z" id="Path_318" fill="#FF6584"></path>
                <path d="M612.991002,465.75159 L612.894774,467.127034 L612.894774,467.223219 L612.731186,469.435473 L611.451353,487.239304 L609.902082,508.688544 L609.459433,514.728958 L608.497153,527.656214 L608.497153,527.819728 L505.533173,528.781577 L336.566394,530.609091 L336.566394,531.417045 L336.431675,531.417045 L336.431675,530.339773 L336.864701,516.527617 L337.692262,489.538124 L338.404349,466.655728 L338.471709,464.376145 C338.556792,461.595463 339.782419,458.972183 341.860922,457.122016 C343.939425,455.271848 346.68779,454.357703 349.460949,454.594137 C354.002911,454.978877 359.901689,455.450183 366.955203,455.950345 L369.842043,456.161952 C410.575364,458.989789 485.854543,462.644816 561.816941,458.08565 C563.414326,457.999084 565.021334,457.902899 566.628342,457.787477 C578.406652,457.046853 590.175338,456.094622 601.828552,454.901929 C604.810681,454.589618 607.778058,455.613522 609.932364,457.698179 C612.08667,459.782836 613.206653,462.714148 612.991002,465.703497 L612.991002,465.75159 Z" id="Path_319" fill="#000000" opacity="0.1"></path>
                <path d="M336.537526,531.417045 L336.537526,530.609091 L505.533173,528.771959 L608.497153,527.81011 L608.785837,527.81011 L608.785837,527.646595 L609.748118,514.71934 L610.161898,508.948244 L611.740037,487.20083 L612.981379,469.983727 L612.981379,469.560513 C613.038782,468.767172 613.003257,467.969845 612.875528,467.184745 C612.880912,467.152909 612.880912,467.120396 612.875528,467.08856 C612.611144,465.465283 611.950082,463.932304 610.950968,462.625579 C608.796841,459.864507 605.369805,458.409942 601.886288,458.778182 C590.233075,459.970875 578.464388,460.923106 566.686079,461.66373 C565.079071,461.779152 563.472063,461.875337 561.874678,461.961903 C485.91228,466.472977 410.6331,462.817949 369.89978,460.038204 L367.012939,459.826598 C359.959426,459.326436 354.060648,458.864748 349.518686,458.47039 C344.343537,458.03389 339.674683,461.575482 338.702656,466.674965 C338.605495,467.1957 338.547596,467.722994 338.529446,468.252398 L337.875095,489.566979 L336.980175,516.566091 L336.556771,530.378247 L336.556771,531.455519 L336.537526,531.417045 Z" id="Path_320" fill="#3F3D56"></path>
                <path d="M613.279686,472.494153 L612.096081,487.239304 L610.335108,509.217562 L609.89246,514.71934 L608.930179,527.04063 L608.872443,527.656214 L608.872443,527.819728 L608.872443,527.819728 L608.7281,529.243265 L608.833951,527.819728 L608.55489,527.819728 L505.59091,528.781577 L336.566394,530.609091 L336.566394,530.339773 L337.037911,516.527617 L338.000192,489.538124 L338.616051,471.599634 C338.67758,469.526256 339.786065,467.625295 341.560628,466.549924 C342.650287,465.882397 343.924354,465.579184 345.198047,465.68426 C347.218836,465.847774 349.701519,466.040144 352.597982,466.251751 C357.303532,466.598017 363.106082,467.001994 369.861289,467.425207 C382.370931,468.213924 398.065721,469.060351 416.050738,469.752883 C466.089308,471.676582 533.641377,472.321021 597.80622,466.70382 C600.693061,466.45374 603.676129,466.174803 606.591838,465.895867 C607.745948,465.780823 608.908747,466.001255 609.940574,466.530688 C610.232845,466.676196 610.510041,466.850172 610.768135,467.050086 C611.605826,467.656795 612.26947,468.472712 612.692695,469.416236 C612.790848,469.603962 612.871382,469.800379 612.933265,470.002964 C613.222363,470.799858 613.340396,471.648658 613.279686,472.494153 L613.279686,472.494153 Z" id="Path_321" fill="#000000" opacity="0.1"></path>
                <path d="M286.845377,485.661871 L286.845377,488.73017 C286.846437,491.007464 285.535367,493.081772 283.477396,494.058816 L244.88996,494.79944 C242.794609,493.839469 241.452151,491.745872 241.454617,489.441939 L241.454617,486.556391 L286.845377,485.661871 Z" id="Path_322" fill="#000000" opacity="0.1"></path>
                <polygon id="Path_323" fill="#3F3D56" points="287.316894 495.867093 237.037754 496.828942 237.037754 488.489708 287.316894 487.527859"></polygon>
                <polygon id="Path_324" fill="#000000" opacity="0.1" points="287.316894 495.867093 237.037754 496.828942 237.037754 488.489708 287.316894 487.527859"></polygon>
                <polygon id="Path_325" fill="#3F3D56" points="289.241454 495.867093 238.962314 496.828942 238.962314 488.489708 289.241454 487.527859"></polygon>
                <path d="M653.589602,487.58557 L653.589602,490.653869 C653.588543,492.931163 654.899613,495.00547 656.957584,495.982515 L695.545019,496.723139 C697.640371,495.763167 698.982828,493.669571 698.980363,491.365638 L698.980363,488.48009 L653.589602,487.58557 Z" id="Path_326" fill="#000000" opacity="0.1"></path>
                <polygon id="Path_327" fill="#000000" opacity="0.1" points="653.108463 497.790791 703.387603 498.752641 703.387603 490.413407 653.108463 489.451557"></polygon>
                <polygon id="Path_328" fill="#3F3D56" points="651.183903 497.790791 701.463042 498.752641 701.463042 490.413407 651.183903 489.451557"></polygon>
                <path d="M437.62506,301.871697 C437.702042,308.604643 434.584254,314.952849 431.937984,321.176014 C422.303133,343.84512 418.130239,368.459439 419.755517,393.035779 C420.457981,403.616122 422.2382,414.196464 420.457981,424.680622 C418.677763,435.16478 412.345959,445.620083 402.174658,448.630671 C419.043429,458.681997 441.878338,457.623963 457.755961,446.072152 C466.214404,439.916316 472.517339,431.327001 478.685556,422.881964 C477.952947,438.052289 473.558579,452.820125 465.877606,465.924722 C493.955129,463.439832 519.661811,449.171339 536.614823,426.662032 C540.762251,421.073687 544.370801,414.937088 545.968186,408.165669 C548.941632,395.661627 544.794205,382.667043 541.628303,370.17262 C538.982687,359.72776 536.999651,349.126317 535.691034,338.431591 C535.277254,335.007408 534.940455,331.487039 535.787262,328.139803 C536.749542,324.225076 539.31883,320.916315 541.214522,317.347854 C546.603291,307.209961 546.728388,294.936764 543.966644,283.798548 C541.2049,272.660333 535.796885,262.387782 530.436984,252.240271 C526.145215,244.103026 521.487778,235.590659 513.635572,230.810268 C508.727943,227.828535 503.05049,226.587749 497.392282,225.385437 L472.979234,220.162595 C467.638579,219.017995 462.143959,217.873394 456.745567,218.710203 C447.632774,220.13374 441.214365,226.712789 435.575403,233.464972 C431.158537,238.716669 420.361753,248.575625 419.601552,255.452848 C418.90871,261.791435 424.509181,272.410252 425.461838,279.095105 C426.712802,287.751749 427.5981,284.866201 432.486484,290.175609 C435.575403,293.465134 437.567323,297.264439 437.62506,301.871697 Z" id="Path_329" fill="#3F3D56"></path>
            </g>
            <g id="React-icon" transform="translate(177.000000, 268.000000)">
                <path d="M525.701135,112.973845 C525.701135,107.371638 518.680798,102.061702 507.922371,98.7688312 C510.405455,87.8086174 509.301435,79.0817876 504.43913,76.288856 C503.260757,75.6292593 501.927154,75.2972795 500.576983,75.3274337 L500.576983,79.1731227 C501.259761,79.1519072 501.936567,79.3061654 502.542677,79.6211455 C504.888239,80.9671367 505.908592,86.0857488 505.112313,92.6714912 C504.919975,94.2914877 504.612234,95.9989736 504.233328,97.7401093 C500.629116,96.8717849 496.9711,96.2441921 493.283525,95.8614903 C491.086904,92.8321048 488.690497,89.9526561 486.110279,87.2423397 C491.731357,82.0189326 497.008151,79.1567786 500.595255,79.1567786 L500.595255,75.3062824 L500.595255,75.3062824 C495.853161,75.3062824 489.645452,78.6847202 483.368501,84.5465117 C477.09155,78.7193314 470.88384,75.3755048 466.141747,75.3755048 L466.141747,79.2211939 C469.71154,79.2211939 475.004682,82.0660423 480.626722,87.2548382 C478.058853,89.9558266 475.679488,92.8298648 473.505408,95.8566831 C469.811632,96.2352037 466.148468,96.8686903 462.542141,97.7526078 C462.145925,96.0287777 461.852609,94.3568644 461.645846,92.7532121 C460.835141,86.1674697 461.838184,81.0478961 464.16355,79.6855608 C464.772253,79.3607382 465.457288,79.2059675 466.146555,79.237538 L466.146555,75.391849 L466.146555,75.391849 C464.785422,75.3619839 463.440738,75.6937483 462.249787,76.3532713 C457.403831,79.1413958 456.318083,87.8518814 458.818477,98.7813296 C448.092748,102.091506 441.108955,107.383175 441.108955,112.969038 C441.108955,118.572207 448.129292,123.88118 458.887719,127.174052 C456.404635,138.134265 457.508655,146.861095 462.37096,149.654027 C463.554788,150.315706 464.894516,150.647723 466.250418,150.615449 C470.992511,150.615449 477.200221,147.237011 483.477172,141.37522 C489.754123,147.2024 495.961832,150.546227 500.703926,150.546227 C502.065059,150.576092 503.409743,150.244327 504.600694,149.584804 C509.44665,146.79668 510.532398,138.086194 508.032004,127.156746 C518.717342,123.868682 525.701135,118.558747 525.701135,112.973845 Z M503.249519,101.475235 C502.611919,103.699004 501.818524,105.993919 500.921268,108.284989 C500.214425,106.906309 499.472962,105.526668 498.662258,104.150873 C497.868863,102.772193 497.027385,101.427164 496.179174,100.112899 C498.628598,100.475356 500.991471,100.923378 503.250481,101.475235 L503.249519,101.475235 Z M495.35212,119.8384 C494.005754,122.166003 492.627653,124.372467 491.196658,126.424142 C488.627022,126.648154 486.023727,126.769293 483.406968,126.769293 C480.802712,126.769293 478.199417,126.648154 475.647091,126.441448 C474.216096,124.390414 472.825172,122.206703 471.474318,119.890317 C470.163855,117.632256 468.968154,115.345353 467.887214,113.029607 C468.956614,110.722194 470.163535,108.409974 471.457008,106.151593 C472.803374,103.823989 474.181476,101.617525 475.61247,99.5658502 C478.182106,99.3418388 480.785401,99.2206996 483.40216,99.2206996 C486.006417,99.2206996 488.609711,99.3418388 491.162037,99.5485446 C492.593032,101.599579 493.983956,103.783289 495.33481,106.099676 C496.645273,108.357736 497.840974,110.644639 498.921914,112.960385 C497.835204,115.266837 496.645594,117.576173 495.35212,119.834554 L495.35212,119.8384 Z M500.922229,117.597325 C501.853145,119.904738 502.646539,122.216959 503.30145,124.458034 C501.04244,125.00989 498.663219,125.475219 496.197446,125.836713 C497.042772,124.508989 497.887135,123.144731 498.68053,121.750669 C499.477771,120.369105 500.215387,118.97312 500.920306,117.593479 L500.922229,117.597325 Z M483.436781,135.98741 C481.745199,134.231936 480.145076,132.390622 478.642756,130.470769 C480.194924,130.539991 481.78075,130.591908 483.384849,130.591908 C485.005297,130.591908 486.609396,130.557297 488.178874,130.470769 C486.698817,132.393773 485.115807,134.235343 483.436781,135.98741 Z M470.607835,125.833829 C468.159373,125.471373 465.799385,125.02335 463.53749,124.471494 C464.175091,122.247724 464.968485,119.952809 465.865742,117.66174 C466.572584,119.040419 467.314047,120.42006 468.124752,121.795856 C468.935456,123.171651 469.761548,124.523411 470.607835,125.833829 Z M483.350229,89.959319 C485.041807,91.7147964 486.64193,93.55611 488.144254,95.4759599 C486.592086,95.4067375 485.006259,95.3548207 483.40216,95.3548207 C481.78075,95.3548207 480.177613,95.3894319 478.608135,95.4759599 C480.088192,93.5529555 481.671202,91.7113856 483.350229,89.959319 Z M470.590525,100.110977 C469.745199,101.438701 468.900836,102.802959 468.107441,104.197021 C467.314047,105.575701 466.568737,106.955342 465.865742,108.331137 C464.934826,106.023724 464.141431,103.711503 463.486521,101.470428 C465.744569,100.940684 468.126675,100.475356 470.590525,100.110977 Z M454.985181,121.693945 C448.880372,119.090413 444.931673,115.677364 444.931673,112.970961 C444.931673,110.264557 448.880372,106.834202 454.985181,104.247977 C456.468107,103.610554 458.089516,103.041392 459.761895,102.506841 C460.816708,106.089887 462.112821,109.597475 463.641353,113.005572 C462.129007,116.39674 460.849874,119.887117 459.812865,123.452386 C458.105865,122.92072 456.484455,122.334252 454.984219,121.696829 L454.985181,121.693945 Z M464.262604,146.328467 C461.917042,144.982476 460.896689,139.863864 461.692969,133.278122 C461.885307,131.657164 462.193047,129.950639 462.571953,128.209503 C466.176166,129.077828 469.834181,129.705421 473.521756,130.088123 C475.718368,133.117515 478.114776,135.996964 480.695002,138.707273 C475.073924,143.93068 469.797131,146.792834 466.210027,146.792834 C465.532465,146.801726 464.863192,146.643206 464.261643,146.331352 L464.262604,146.328467 Z M505.165206,133.192555 C505.97591,139.778297 504.972868,144.897871 502.647501,146.260206 C502.038815,146.585074 501.353768,146.739847 500.664496,146.708229 C497.094703,146.708229 491.801561,143.863381 486.179521,138.674585 C488.747386,135.973592 491.126751,133.099554 493.300836,130.07274 C496.994612,129.694222 500.657776,129.060736 504.264102,128.176815 C504.6524,129.832664 504.952867,131.507876 505.164244,133.195439 L505.165206,133.192555 Z M511.800867,121.693945 C510.317941,122.331368 508.696532,122.90053 507.024153,123.435081 C505.969345,119.852033 504.673232,116.344444 503.144695,112.93635 C504.657041,109.545182 505.936174,106.054804 506.973183,102.489535 C508.680183,103.024086 510.301592,103.609592 511.819139,104.247977 C517.923948,106.851508 521.872647,110.264557 521.872647,112.970961 C521.856298,115.680249 517.907599,119.110603 511.80279,121.696829 L511.800867,121.693945 Z" id="Path_330" fill="#61DAFB" fill-rule="nonzero"></path>
                <g id="Path_331" transform="translate(157.614268, 0.000000)"></g>
                <ellipse id="Ellipse_112" fill="#61DAFB" fill-rule="nonzero" cx="483.384849" cy="112.972884" rx="7.88008829" ry="7.87789396"></ellipse>
                <g id="Path_332" transform="translate(0.000000, 0.236510)"></g>
            </g>
        </g>
        <g id="编组-2" transform="translate(302.000000, 525.000000)" fill-rule="nonzero">
            <g id="编组" transform="translate(0.000000, 23.000000)">
                <path d="M37.5,0 C58.2106779,0 75,12.2793669 75,27.4267337 C75,39.0713912 65.077701,49.0210931 51.0793696,53 C49.5818544,46.7584801 43.9605883,42.1196267 37.254902,42.1196267 C30.5966342,42.1196267 25.007504,46.6931058 23.4628582,52.8673452 C9.70647275,48.8032783 0,38.9440496 0,27.4267337 C0,12.2793669 16.7893219,0 37.5,0 Z" id="形状结合" fill="#319FEE"></path>
                <path d="M38.3872525,30.8914286 C53.1446589,30.8914286 64.3724696,38.258252 64.3724696,44.0457443 C64.3724696,47.8384057 59.2349186,51.1604805 51.5402134,53 C50.7637163,46.1504378 44.7321484,42.339831 37.4066783,42.339831 C30.122856,42.339831 24.1182653,46.1072317 23.286678,52.8830362 C15.8574125,51.0222021 10.9311741,47.7595887 10.9311741,44.0457443 C10.9311741,38.258252 23.6298462,30.8914286 38.3872525,30.8914286 Z" id="形状结合" stroke="#4A4A4A" fill="#FFFFFF"></path>
            </g>
            <path d="M38.5,22 C41.537566,22 44,16.2096387 44,9.06686603 C44,1.92409336 41.537566,0 38.5,0 C35.462434,0 33,1.92409336 33,9.06686603 C33,16.2096387 35.462434,22 38.5,22 Z" id="椭圆形" stroke="#4A4A4A" fill="#FFFFFF"></path>
        </g>
        <polygon id="矩形" fill="#FFFFFF" fill-rule="nonzero" points="337.1533 589.558226 341.763895 589.558226 341.8402 595.416851 337.1533 595.416851"></polygon>
        <g id="bell" transform="translate(327.779500, 591.901676)" fill="#FFFFFF" fill-rule="nonzero">
            <path d="M22.1252615,20.333107 C20.2907377,20.333107 19.578833,19.2309331 19.578833,12.3070201 C19.578833,6.88093307 17.1966901,3.48962875 13.0895472,2.98093308 L13.0895472,1.22875916 C13.0895472,0.607020029 12.5966901,0.0983243862 11.9943092,0.0983243862 C11.3919282,0.0983243862 10.899071,0.607020029 10.899071,1.22875916 L10.899071,2.92441134 C6.51811867,3.29180265 3.97169009,6.73962875 3.97169009,12.2787592 C3.97169009,19.2026722 3.17764247,20.3048461 1.31573769,20.3048461 C0.740737695,20.333107 0.220499606,20.75702 0.220499606,21.3787592 C0.220499606,22.0287592 0.71335674,22.4526722 1.31573769,22.4526722 L8.43478532,22.4526722 C8.51692818,23.3004983 8.76335675,24.3461504 9.42049961,25.0809331 C9.99549961,25.7309331 10.7621663,26.0983244 11.6657377,26.0983244 C12.5693091,26.0983244 13.3359758,25.7026722 13.9109758,25.0809331 C14.5954996,24.3178896 14.8693092,23.3004983 14.9788329,22.4526722 L22.1252615,22.4526722 C22.7276425,22.4526722 23.2204996,22.0287592 23.2204996,21.3787592 C23.2204996,20.75702 22.7276425,20.333107 22.1252615,20.333107 Z M12.3228805,23.5548461 C12.2133567,23.6678896 12.049071,23.8374548 11.6657377,23.8374548 C11.3097853,23.8374548 11.1454996,23.6678896 11.0359758,23.5548461 C10.8443091,23.3004983 10.7074043,23.0178896 10.6526425,22.4526722 L12.8157377,22.4526722 C12.7062139,23.0178896 12.5693091,23.3004983 12.3228805,23.5548461 Z M11.8847853,20.1918026 L5.09430911,20.1918026 C6.10740438,18.2135418 6.10740438,15.133107 6.10740438,12.2504983 C6.10740438,7.64397655 8.05145197,5.21354176 11.5562139,5.21354176 L11.8574044,5.21354176 C15.3621663,5.21354176 17.3062139,7.64397655 17.3062139,12.2504983 C17.3062139,15.133107 17.3062139,18.2135418 18.3193091,20.1918026 L11.8847853,20.1918026 Z M15.7728805,10.1591939 C15.8002615,10.6961504 15.3895472,11.1765852 14.8693092,11.2048461 L14.8145472,11.2048461 C14.3216901,11.2048461 13.8835948,10.809194 13.8562139,10.2722374 C13.774071,9.00049828 12.8157377,8.54832439 12.7062139,8.49180265 C12.2133567,8.2657157 11.9943092,7.70049828 12.1859758,7.19180265 C12.3776425,6.68310697 12.9252615,6.45702002 13.4181187,6.65484612 C13.5276425,6.71136786 15.6359758,7.6157157 15.7728805,10.1591939 L15.7728805,10.1591939 Z" id="形状"></path>
        </g>
    </g>
</svg>