<?xml version="1.0" encoding="UTF-8"?>
<svg width="1200px" height="1200px" viewBox="0 0 1200 1200" version="1.1" xmlns="http://www.w3.org/2000/svg" xmlns:xlink="http://www.w3.org/1999/xlink">
    <title>画板</title>
    <defs>
        <linearGradient x1="50%" y1="-22.1292312%" x2="50%" y2="111.915064%" id="linearGradient-1">
            <stop stop-color="#EEEEEE" offset="0%"></stop>
            <stop stop-color="#E5E5E5" offset="40.9516021%"></stop>
            <stop stop-color="#D8D8D8" offset="100%"></stop>
        </linearGradient>
        <linearGradient x1="50%" y1="24.9131946%" x2="100%" y2="101.795696%" id="linearGradient-2">
            <stop stop-color="#80C3F3" offset="0%"></stop>
            <stop stop-color="#4A90E2" offset="100%"></stop>
        </linearGradient>
    </defs>
    <g id="画板" stroke="none" stroke-width="1" fill="none" fill-rule="evenodd">
        <path d="M723.752666,871.370833 L886.876274,871.370833 C894.234036,871.370833 900.196508,875.389547 900.193828,880.34285 C900.19322,881.465393 899.879591,882.577883 899.268375,883.622292 C892.43895,895.313838 889.024237,915.100573 889.024237,942.982497 C889.024237,975.619073 915.027143,1022.28852 924.384385,1081.55714 C926.172281,1092.88163 923.643643,1113.17205 916.798476,1142.4284 C915.777631,1146.78712 910.198742,1150 903.644207,1150 L817.282195,1150 L817.282195,1150 L736.680432,1150 C729.322669,1150 723.359689,1145.98205 723.361742,1141.02875 C723.36204,1140.31251 723.489779,1139.59887 723.741034,1138.9029 C733.624395,1111.61862 737.871562,1092.50337 736.482541,1081.55714 C728.856585,1021.46048 698.801205,975.774379 698.801205,942.982497 C698.801205,906.489238 703.523541,883.85421 712.968215,875.077416 C715.47337,872.750115 719.483372,871.370833 723.752666,871.370833 Z" id="矩形" stroke="#4A4A4A" stroke-width="4" fill="url(#linearGradient-1)" fill-rule="nonzero"></path>
        <path d="M272.567105,871.370833 L435.690713,871.370833 C443.048475,871.370833 449.010947,875.389547 449.008267,880.34285 C449.007659,881.465393 448.69403,882.577883 448.082814,883.622292 C441.253389,895.313838 437.838676,915.100573 437.838676,942.982497 C437.838676,975.619073 463.841582,1022.28852 473.198824,1081.55714 C474.986719,1092.88163 472.458082,1113.17205 465.612915,1142.4284 C464.59207,1146.78712 459.01318,1150 452.458646,1150 L366.096633,1150 L366.096633,1150 L285.494871,1150 C278.137108,1150 272.174127,1145.98205 272.176181,1141.02875 C272.176479,1140.31251 272.304218,1139.59887 272.555473,1138.9029 C282.438833,1111.61862 286.686001,1092.50337 285.29698,1081.55714 C277.671024,1021.46048 247.615644,975.774379 247.615644,942.982497 C247.615644,906.489238 252.33798,883.85421 261.782654,875.077416 C264.287809,872.750115 268.297811,871.370833 272.567105,871.370833 Z" id="矩形" stroke="#4A4A4A" stroke-width="4" fill="url(#linearGradient-1)" fill-rule="nonzero"></path>
        <path d="M498.159885,871.370833 L661.283494,871.370833 C668.641255,871.370833 674.603728,875.389547 674.601047,880.34285 C674.60044,881.465393 674.286811,882.577883 673.675595,883.622292 C666.846169,895.313838 663.431457,915.100573 663.431457,942.982497 C663.431457,975.619073 689.434362,1022.28852 698.791604,1081.55714 C700.5795,1092.88163 698.050863,1113.17205 691.205695,1142.4284 C690.184851,1146.78712 684.605961,1150 678.051427,1150 L591.689414,1150 L591.689414,1150 L511.087652,1150 C503.729888,1150 497.766908,1145.98205 497.768961,1141.02875 C497.76926,1140.31251 497.896999,1139.59887 498.148254,1138.9029 C508.031614,1111.61862 512.278782,1092.50337 510.889761,1081.55714 C503.263805,1021.46048 473.208425,975.774379 473.208425,942.982497 C473.208425,906.489238 477.93076,883.85421 487.375435,875.077416 C489.880589,872.750115 493.890592,871.370833 498.159885,871.370833 Z" id="矩形" stroke="#4A4A4A" stroke-width="4" fill="url(#linearGradient-1)" fill-rule="nonzero"></path>
        <g id="编组-2" transform="translate(361.000000, 32.000000)" fill-rule="nonzero">
            <g id="bell" transform="translate(142.000000, 362.000000)" fill="#4A4A4A">
                <path d="M123.809524,112.069565 C113.440476,112.069565 109.416667,105.965217 109.416667,67.6173915 C109.416667,37.5652173 95.9523808,18.7826088 72.7380953,15.9652174 L72.7380953,6.26086949 C72.7380953,2.81739125 69.952381,0 66.5476192,0 C63.1428571,0 60.3571429,2.81739125 60.3571429,6.26086949 L60.3571429,15.6521739 C35.5952382,17.6869566 21.202381,36.7826088 21.202381,67.4608696 C21.202381,105.808696 16.7142857,111.913043 6.19047613,111.913043 C2.94047616,112.069565 0,114.417391 0,117.86087 C0,121.46087 2.78571423,123.808696 6.19047613,123.808696 L46.4285714,123.808696 C46.8928571,128.504348 48.2857143,134.295652 52,138.365217 C55.25,141.965217 59.5833332,144 64.6904761,144 C69.797619,144 74.1309525,141.808696 77.3809525,138.365217 C81.25,134.13913 82.7976192,128.504348 83.4166665,123.808696 L123.809524,123.808696 C127.214286,123.808696 130,121.46087 130,117.86087 C130,114.417391 127.214286,112.069565 123.809524,112.069565 Z M68.4047618,129.913043 C67.7857143,130.53913 66.8571429,131.478261 64.6904761,131.478261 C62.6785714,131.478261 61.75,130.53913 61.1309525,129.913043 C60.047619,128.504348 59.2738093,126.93913 58.9642857,123.808696 L71.1904761,123.808696 C70.5714286,126.93913 69.797619,128.504348 68.4047618,129.913043 Z M65.9285714,111.286957 L27.547619,111.286957 C33.2738096,100.330435 33.2738096,83.2695653 33.2738096,67.304348 C33.2738096,41.7913043 44.2619047,28.3304347 64.0714286,28.3304347 L65.7738096,28.3304347 C85.5833332,28.3304347 96.5714286,41.7913043 96.5714286,67.304348 C96.5714286,83.2695653 96.5714286,100.330435 102.297619,111.286957 L65.9285714,111.286957 Z M87.9047618,55.7217389 C88.0595236,58.695652 85.7380953,61.3565216 82.7976192,61.5130435 L82.4880953,61.5130435 C79.702381,61.5130435 77.2261904,59.3217392 77.0714286,56.3478261 C76.6071429,49.3043477 71.1904761,46.8 70.5714286,46.4869565 C67.7857143,45.2347827 66.5476192,42.1043477 67.6309522,39.2869565 C68.7142857,36.4695651 71.8095236,35.2173912 74.5952382,36.3130435 C75.2142857,36.6260869 87.1309525,41.6347827 87.9047618,55.7217389 L87.9047618,55.7217389 Z" id="形状"></path>
            </g>
            <rect id="矩形" fill="#4A4A4A" x="199" y="356" width="16" height="27"></rect>
            <g id="编组" transform="translate(0.000000, 126.000000)" stroke="#4A4A4A" stroke-width="5">
                <path d="M204,0 C316.666088,0 408,66.9573026 408,149.553321 C408,213.049661 354.022693,267.303696 277.871771,289 C269.725288,254.966052 239.1456,229.671172 202.666667,229.671172 C166.44569,229.671172 136.040822,254.609577 127.637949,288.276656 C52.8032117,266.115989 0,212.355289 0,149.553321 C0,66.9573026 91.3339109,0 204,0 Z" id="形状结合" fill="url(#linearGradient-2)"></path>
                <path d="M208.826654,168.445714 C289.106944,168.445714 350.186235,208.615752 350.186235,240.173964 C350.186235,260.854703 322.237957,278.969413 280.378761,289 C276.154617,251.6505 243.342887,230.871909 203.49233,230.871909 C163.868337,230.871909 131.203363,251.414905 126.679528,288.362217 C86.2643238,278.215404 59.465587,260.424927 59.465587,240.173964 C59.465587,208.615752 128.546364,168.445714 208.826654,168.445714 Z" id="形状结合" fill="#FFFFFF"></path>
            </g>
            <path d="M207.5,123 C223.792399,123 237,90.6266163 237,50.6920237 C237,10.7574311 223.792399,0 207.5,0 C191.207601,0 178,10.7574311 178,50.6920237 C178,90.6266163 191.207601,123 207.5,123 Z" id="椭圆形" stroke="#4A4A4A" stroke-width="6" fill="#FFFFFF"></path>
            <rect id="矩形" fill="#4A4A4A" x="199" y="356" width="16" height="27"></rect>
            <g id="bell" transform="translate(142.000000, 362.000000)" fill="#4A4A4A">
                <path d="M123.809524,112.069565 C113.440476,112.069565 109.416667,105.965217 109.416667,67.6173915 C109.416667,37.5652173 95.9523808,18.7826088 72.7380953,15.9652174 L72.7380953,6.26086949 C72.7380953,2.81739125 69.952381,0 66.5476192,0 C63.1428571,0 60.3571429,2.81739125 60.3571429,6.26086949 L60.3571429,15.6521739 C35.5952382,17.6869566 21.202381,36.7826088 21.202381,67.4608696 C21.202381,105.808696 16.7142857,111.913043 6.19047613,111.913043 C2.94047616,112.069565 0,114.417391 0,117.86087 C0,121.46087 2.78571423,123.808696 6.19047613,123.808696 L46.4285714,123.808696 C46.8928571,128.504348 48.2857143,134.295652 52,138.365217 C55.25,141.965217 59.5833332,144 64.6904761,144 C69.797619,144 74.1309525,141.808696 77.3809525,138.365217 C81.25,134.13913 82.7976192,128.504348 83.4166665,123.808696 L123.809524,123.808696 C127.214286,123.808696 130,121.46087 130,117.86087 C130,114.417391 127.214286,112.069565 123.809524,112.069565 Z M68.4047618,129.913043 C67.7857143,130.53913 66.8571429,131.478261 64.6904761,131.478261 C62.6785714,131.478261 61.75,130.53913 61.1309525,129.913043 C60.047619,128.504348 59.2738093,126.93913 58.9642857,123.808696 L71.1904761,123.808696 C70.5714286,126.93913 69.797619,128.504348 68.4047618,129.913043 Z M65.9285714,111.286957 L27.547619,111.286957 C33.2738096,100.330435 33.2738096,83.2695653 33.2738096,67.304348 C33.2738096,41.7913043 44.2619047,28.3304347 64.0714286,28.3304347 L65.7738096,28.3304347 C85.5833332,28.3304347 96.5714286,41.7913043 96.5714286,67.304348 C96.5714286,83.2695653 96.5714286,100.330435 102.297619,111.286957 L65.9285714,111.286957 Z M87.9047618,55.7217389 C88.0595236,58.695652 85.7380953,61.3565216 82.7976192,61.5130435 L82.4880953,61.5130435 C79.702381,61.5130435 77.2261904,59.3217392 77.0714286,56.3478261 C76.6071429,49.3043477 71.1904761,46.8 70.5714286,46.4869565 C67.7857143,45.2347827 66.5476192,42.1043477 67.6309522,39.2869565 C68.7142857,36.4695651 71.8095236,35.2173912 74.5952382,36.3130435 C75.2142857,36.6260869 87.1309525,41.6347827 87.9047618,55.7217389 L87.9047618,55.7217389 Z" id="形状"></path>
            </g>
            <g id="编组" transform="translate(0.000000, 126.000000)" stroke="#4A4A4A" stroke-width="5">
                <path d="M204,0 C316.666088,0 408,66.9573026 408,149.553321 C408,213.049661 354.022693,267.303696 277.871771,289 C269.725288,254.966052 239.1456,229.671172 202.666667,229.671172 C166.44569,229.671172 136.040822,254.609577 127.637949,288.276656 C52.8032117,266.115989 0,212.355289 0,149.553321 C0,66.9573026 91.3339109,0 204,0 Z" id="形状结合" fill="url(#linearGradient-2)"></path>
                <path d="M208.826654,168.445714 C289.106944,168.445714 350.186235,208.615752 350.186235,240.173964 C350.186235,260.854703 322.237957,278.969413 280.378761,289 C276.154617,251.6505 243.342887,230.871909 203.49233,230.871909 C163.868337,230.871909 131.203363,251.414905 126.679528,288.362217 C86.2643238,278.215404 59.465587,260.424927 59.465587,240.173964 C59.465587,208.615752 128.546364,168.445714 208.826654,168.445714 Z" id="形状结合" fill="#FFFFFF"></path>
            </g>
            <path d="M207.5,123 C223.792399,123 237,90.6266163 237,50.6920237 C237,10.7574311 223.792399,0 207.5,0 C191.207601,0 178,10.7574311 178,50.6920237 C178,90.6266163 191.207601,123 207.5,123 Z" id="椭圆形" stroke="#4A4A4A" stroke-width="6" fill="#FFFFFF"></path>
        </g>
        <path d="M476.844032,576 L639.96764,576 C647.325402,576 653.287874,580.018714 653.285194,584.972017 C653.284586,586.09456 652.970957,587.20705 652.359741,588.251458 C645.530316,599.943005 642.115603,619.729739 642.115603,647.611664 C642.115603,680.248239 668.118509,726.917685 677.475751,786.186306 C679.263647,797.510801 676.735009,817.801221 669.889842,847.057567 C668.868998,851.416285 663.290108,854.629167 656.735573,854.629167 L570.373561,854.629167 L570.373561,854.629167 L489.771799,854.629167 C482.414035,854.629167 476.451055,850.611217 476.453108,845.657913 C476.453406,844.941675 476.581145,844.22804 476.832401,843.532062 C486.715761,816.247791 490.962928,797.132539 489.573907,786.186306 C481.947951,726.089652 451.892572,680.403546 451.892572,647.611664 C451.892572,611.118405 456.614907,588.483377 466.059582,579.706582 C468.564736,577.379281 472.574738,576 476.844032,576 Z" id="矩形" stroke="#4A4A4A" stroke-width="4" fill="url(#linearGradient-1)" fill-rule="nonzero"></path>
        <path d="M704.213134,576 L867.336742,576 C874.694504,576 880.656976,580.018714 880.654296,584.972017 C880.653688,586.09456 880.340059,587.20705 879.728843,588.251458 C872.899418,599.943005 869.484705,619.729739 869.484705,647.611664 C869.484705,680.248239 895.487611,726.917685 904.844853,786.186306 C906.632748,797.510801 904.104111,817.801221 897.258944,847.057567 C896.238099,851.416285 890.659209,854.629167 884.104675,854.629167 L797.742662,854.629167 L797.742662,854.629167 L717.1409,854.629167 C709.783137,854.629167 703.820156,850.611217 703.82221,845.657913 C703.822508,844.941675 703.950247,844.22804 704.201502,843.532062 C714.084862,816.247791 718.33203,797.132539 716.943009,786.186306 C709.317053,726.089652 679.261673,680.403546 679.261673,647.611664 C679.261673,611.118405 683.984009,588.483377 693.428683,579.706582 C695.933838,577.379281 699.94384,576 704.213134,576 Z" id="矩形" stroke="#4A4A4A" stroke-width="4" fill="url(#linearGradient-1)" fill-rule="nonzero"></path>
        <path d="M251.251251,576 L414.37486,576 C421.732622,576 427.695094,580.018714 427.692413,584.972017 C427.691806,586.09456 427.378177,587.20705 426.766961,588.251458 C419.937535,599.943005 416.522823,619.729739 416.522823,647.611664 C416.522823,680.248239 442.525728,726.917685 451.882971,786.186306 C453.670866,797.510801 451.142229,817.801221 444.297062,847.057567 C443.276217,851.416285 437.697327,854.629167 431.142793,854.629167 L344.78078,854.629167 L344.78078,854.629167 L264.179018,854.629167 C256.821254,854.629167 250.858274,850.611217 250.860327,845.657913 C250.860626,844.941675 250.988365,844.22804 251.23962,843.532062 C261.12298,816.247791 265.370148,797.132539 263.981127,786.186306 C256.355171,726.089652 226.299791,680.403546 226.299791,647.611664 C226.299791,611.118405 231.022126,588.483377 240.466801,579.706582 C242.971955,577.379281 246.981958,576 251.251251,576 Z" id="矩形" stroke="#4A4A4A" stroke-width="4" fill="url(#linearGradient-1)" fill-rule="nonzero"></path>
        <rect id="矩形" fill="#4A4A4A" fill-rule="nonzero" x="563" y="535" width="10" height="43"></rect>
    </g>
</svg>