<?xml version="1.0" encoding="UTF-8"?>
<svg width="512px" height="512px" viewBox="0 0 512 512" version="1.1" xmlns="http://www.w3.org/2000/svg" xmlns:xlink="http://www.w3.org/1999/xlink">
    <title>xbell-512 </title>
    <defs>
        <linearGradient x1="50%" y1="25.0228635%" x2="100%" y2="101.569267%" id="linearGradient-1">
            <stop stop-color="#80C3F3" offset="0%"></stop>
            <stop stop-color="#4A90E2" offset="100%"></stop>
        </linearGradient>
        <linearGradient x1="50%" y1="-22.1292312%" x2="50%" y2="111.915064%" id="linearGradient-2">
            <stop stop-color="#EEEEEE" offset="0%"></stop>
            <stop stop-color="#E5E5E5" offset="40.9516021%"></stop>
            <stop stop-color="#D8D8D8" offset="100%"></stop>
        </linearGradient>
    </defs>
    <g id="xbell-512" stroke="none" stroke-width="1" fill="none" fill-rule="evenodd">
        <g id="编组-2" transform="translate(147.200000, 15.360000)" fill-rule="nonzero" stroke="#000000">
            <g id="编组" transform="translate(0.000000, 60.160000)" stroke-width="4">
                <path d="M97.4933333,0 C151.337414,0 194.986667,31.9294431 194.986667,71.3164073 C194.986667,101.595446 169.190453,127.467174 132.79728,137.813333 C128.904007,121.583812 114.289714,109.521626 96.856122,109.521626 C79.5458094,109.521626 65.0150645,121.413822 60.9992601,137.468398 C25.2351035,126.900801 0,101.264326 0,71.3164073 C0,31.9294431 43.6492521,0 97.4933333,0 Z" id="形状结合" fill="url(#linearGradient-1)"></path>
                <path d="M99.8000322,80.3254857 C138.166665,80.3254857 167.356977,99.48108 167.356977,114.530016 C167.356977,124.39189 154.000258,133.03012 133.995392,137.813333 C131.976638,120.002748 116.538253,101.767491 97.4933333,101.767491 C78.5566903,101.767491 62.703202,119.890402 60.541223,137.509198 C41.2264533,132.670561 28.4191093,124.186946 28.4191093,114.530016 C28.4191093,99.48108 61.4333994,80.3254857 99.8000322,80.3254857 Z" id="形状结合" fill="#FFFFFF"></path>
            </g>
            <path d="M98.1333333,58.88 C105.909502,58.88 112.213333,43.3828876 112.213333,24.2662305 C112.213333,5.1495735 105.909502,0 98.1333333,0 C90.3571644,0 84.0533333,5.1495735 84.0533333,24.2662305 C84.0533333,43.3828876 90.3571644,58.88 98.1333333,58.88 Z" id="椭圆形" stroke-width="5" fill="#FFFFFF"></path>
        </g>
        <path d="M243.608889,186.026271 C244.488825,184.670814 245.170873,184.07542 245.655031,184.240091 C246.13919,184.404761 246.824554,185.000155 247.711124,186.026271 L248.608889,271.213333 L243.608889,271.213333 L243.608889,186.026271 Z" id="矩形" fill="#000000" fill-rule="nonzero"></path>
        <path d="M198.035272,272.213333 L288.000414,272.213333 C292.058331,272.213333 295.346725,275.382583 295.345247,279.288871 C295.344911,280.174134 295.17194,281.051469 294.834845,281.875114 C291.068314,291.095335 289.185048,306.699606 289.185048,328.687929 C289.185048,354.425879 303.526045,391.230471 308.686705,437.971061 C309.672757,446.901817 308.278175,462.903307 304.502962,485.97553 C303.93995,489.412915 300.863108,491.946667 297.248183,491.946667 L249.618225,491.946667 L205.165131,491.946667 C201.107213,491.946667 197.818539,488.77802 197.819672,484.871731 C197.819836,484.306889 197.890286,483.744101 198.028857,483.195236 C203.47968,461.678236 205.822058,446.603511 205.055992,437.971061 C200.850161,390.577465 184.274164,354.548357 184.274164,328.687929 C184.274164,299.90851 186.878603,282.05801 192.087484,275.136429 C193.469115,273.301066 195.680692,272.213333 198.035272,272.213333 Z" id="矩形" stroke="#000000" stroke-width="3" fill="url(#linearGradient-2)" fill-rule="nonzero"></path>
        <g id="bell" transform="translate(215.893333, 201.228985)" fill-rule="nonzero">
            <path d="M57.7015873,43.7092175 C52.8690794,43.7092175 50.9937778,40.941913 50.9937778,23.5575653 C50.9937778,9.93391303 44.7187301,1.41913048 33.8996826,0.14191305 L28.1295238,0 C16.5892064,0.922434809 9.88139684,9.57913049 9.88139684,23.4866087 C9.88139684,40.8709566 7.7897143,43.6382609 2.88507934,43.6382609 C1.37041268,43.7092175 0,44.7735652 0,46.3346087 C0,47.9666087 1.29828569,49.0309566 2.88507934,49.0309566 L21.6380952,49.0309566 C21.8544762,51.1596521 22.503619,53.7850434 24.2346667,55.629913 C25.7493333,57.261913 27.7688888,58.1843478 30.1490793,58.1843478 C32.5292698,58.1843478 34.5488254,57.1909566 36.0634921,55.629913 C37.8666667,53.7140869 38.5879366,51.1596521 38.8764444,49.0309566 L57.7015873,49.0309566 C59.288381,49.0309566 60.5866667,47.9666087 60.5866667,46.3346087 C60.5866667,44.7735652 59.288381,43.7092173 57.7015873,43.7092175 Z" id="形状-path" fill="#000000"></path>
            <path d="M31.9189873,51.5144159 C31.6165401,51.7930553 31.1628692,52.2110145 30.1043038,52.2110145 C29.1213502,52.2110145 28.6676793,51.7930553 28.3652321,51.5144159 C27.8359493,50.8874771 27.4578902,50.1908784 27.3066667,48.7976812 L33.28,48.7976812 C32.9775528,50.1908784 32.5994937,50.8874771 31.9189873,51.5144159 Z" id="形状-path" fill="#FFFFFF"></path>
            <path d="M30.9717599,43.2510145 L13.2266667,43.2510145 C15.8741202,38.2920207 15.8741202,30.5701592 15.8741202,23.344197 C15.8741202,11.7968258 20.9543685,5.70434784 30.1131263,5.70434784 L30.9002071,5.70434784 C40.0589648,5.70434784 45.1392133,11.7968258 45.1392133,23.344197 C45.1392133,30.5701592 45.1392133,38.2920207 47.7866667,43.2510145 L30.9717599,43.2510145 Z" id="形状-path" fill="#FFFFFF"></path>
            <path d="M38.9586043,20.6376812 L38.8116593,20.6376812 C37.4891551,20.6376812 36.3135956,19.651365 36.2401232,18.312793 C36.0197058,15.1424909 33.4481698,14.0152724 33.15428,13.8743701 C31.8317757,13.3107609 31.2439961,11.9017376 31.7583032,10.6336169 C32.2726105,9.36549597 33.7420596,8.80188673 35.0645639,9.29504487 C35.3584537,9.43594718 41.0158331,11.6903842 41.3831953,18.0309883 C41.4566677,19.3695603 40.3545809,20.56723 38.9586043,20.6376812 Z" id="形状-path" fill="#000000"></path>
        </g>
    </g>
</svg>