<?xml version="1.0" encoding="UTF-8"?>
<svg width="1200px" height="1200px" viewBox="0 0 1200 1200" version="1.1" xmlns="http://www.w3.org/2000/svg" xmlns:xlink="http://www.w3.org/1999/xlink">
    <title>画板</title>
    <defs>
        <linearGradient x1="50%" y1="-22.1292312%" x2="50%" y2="111.915064%" id="linearGradient-1">
            <stop stop-color="#EEEEEE" offset="0%"></stop>
            <stop stop-color="#E5E5E5" offset="40.9516021%"></stop>
            <stop stop-color="#D8D8D8" offset="100%"></stop>
        </linearGradient>
        <linearGradient x1="50%" y1="-22.1292312%" x2="50%" y2="111.915064%" id="linearGradient-2">
            <stop stop-color="#EEEEEE" offset="0%"></stop>
            <stop stop-color="#E5E5E5" offset="40.9516021%"></stop>
            <stop stop-color="#D8D8D8" offset="100%"></stop>
        </linearGradient>
    </defs>
    <g id="画板" stroke="none" stroke-width="1" fill="none" fill-rule="evenodd">
        <path d="M140.06955,182.401944 L367.381635,182.401944 C377.634646,182.401944 385.943327,186.71447 385.939592,192.029914 C385.938745,193.234527 385.501704,194.428352 384.649977,195.549118 C375.133201,208.095444 370.374812,229.328805 370.374812,259.249202 C370.374812,294.271868 406.609756,344.353359 419.649035,407.955164 C422.14046,420.107603 418.616814,441.881474 409.078101,473.276779 C407.655559,477.954166 399.881398,481.401944 390.747681,481.401944 L270.402568,481.401944 L270.402568,481.401944 L158.08434,481.401944 C147.831326,481.401944 139.521937,477.090239 139.524799,471.774794 C139.525215,471.006192 139.703218,470.240382 140.053341,469.49352 C153.825763,440.214471 159.744174,419.701685 157.808579,407.955164 C147.181841,343.464788 105.299791,294.438529 105.299791,259.249202 C105.299791,220.087888 111.880346,195.797993 125.041462,186.379518 C128.532384,183.882066 134.120306,182.401944 140.06955,182.401944 Z" id="矩形" stroke="#4A4A4A" stroke-width="4" fill="url(#linearGradient-1)" fill-rule="nonzero"></path>
        <path d="M109.941414,541.731389 L364.504395,541.731389 C375.98657,541.731389 385.291322,548.582391 385.287139,557.026658 C385.286191,558.940341 384.796756,560.836886 383.842921,562.617367 C373.185243,582.548822 367.856404,616.280749 367.856404,663.813153 C367.856404,719.451167 408.435308,799.012065 423.037777,900.05172 C425.827882,919.357435 421.881811,953.948034 411.199567,1003.82352 C409.606485,1011.25415 400.900333,1016.73139 390.671638,1016.73139 L255.899169,1016.73139 L255.899169,1016.73139 L130.115874,1016.73139 C118.633697,1016.73139 109.328152,1009.88169 109.331356,1001.43742 C109.331822,1000.2164 109.531165,998.99981 109.923262,997.813323 C125.346766,951.299784 131.974695,918.712582 129.807055,900.05172 C117.906349,797.600454 71.0033459,719.71593 71.0033459,663.813153 C71.0033459,601.600362 78.3727991,563.012736 93.1117109,548.050277 C97.0211365,544.082753 103.278956,541.731389 109.941414,541.731389 Z" id="矩形" stroke="#4A4A4A" stroke-width="4" fill="url(#linearGradient-2)" fill-rule="nonzero"></path>
        <path d="M814.040242,541.731389 L1068.60322,541.731389 C1080.0854,541.731389 1089.39015,548.582391 1089.38597,557.026658 C1089.38502,558.940341 1088.89558,560.836886 1087.94175,562.617367 C1077.28407,582.548822 1071.95523,616.280749 1071.95523,663.813153 C1071.95523,719.451167 1112.53414,799.012065 1127.13661,900.05172 C1129.92671,919.357435 1125.98064,953.948034 1115.2984,1003.82352 C1113.70531,1011.25415 1104.99916,1016.73139 1094.77047,1016.73139 L959.997997,1016.73139 L959.997997,1016.73139 L834.214703,1016.73139 C822.732525,1016.73139 813.42698,1009.88169 813.430185,1001.43742 C813.430651,1000.2164 813.629994,998.99981 814.022091,997.813323 C829.445595,951.299784 836.073524,918.712582 833.905883,900.05172 C822.005177,797.600454 775.102174,719.71593 775.102174,663.813153 C775.102174,601.600362 782.471627,563.012736 797.210539,548.050277 C801.119965,544.082753 807.377785,541.731389 814.040242,541.731389 Z" id="矩形" stroke="#4A4A4A" stroke-width="4" fill="url(#linearGradient-2)" fill-rule="nonzero"></path>
        <path d="M454.432172,182.401944 L681.744257,182.401944 C691.997269,182.401944 700.30595,186.71447 700.302214,192.029914 C700.301368,193.234527 699.864327,194.428352 699.0126,195.549118 C689.495823,208.095444 684.737435,229.328805 684.737435,259.249202 C684.737435,294.271868 720.972379,344.353359 734.011657,407.955164 C736.503083,420.107603 732.979437,441.881474 723.440724,473.276779 C722.018181,477.954166 714.244021,481.401944 705.110304,481.401944 L584.76519,481.401944 L584.76519,481.401944 L472.446962,481.401944 C462.193949,481.401944 453.88456,477.090239 453.887421,471.774794 C453.887837,471.006192 454.065841,470.240382 454.415964,469.49352 C468.188386,440.214471 474.106797,419.701685 472.171202,407.955164 C461.544463,343.464788 419.662414,294.438529 419.662414,259.249202 C419.662414,220.087888 426.242969,195.797993 439.404084,186.379518 C442.895007,183.882066 448.482929,182.401944 454.432172,182.401944 Z" id="矩形" stroke="#4A4A4A" stroke-width="4" fill="url(#linearGradient-1)" fill-rule="nonzero"></path>
        <path d="M771.270091,182.401944 L998.582176,182.401944 C1008.83519,182.401944 1017.14387,186.71447 1017.14013,192.029914 C1017.13929,193.234527 1016.70225,194.428352 1015.85052,195.549118 C1006.33374,208.095444 1001.57535,229.328805 1001.57535,259.249202 C1001.57535,294.271868 1037.8103,344.353359 1050.84958,407.955164 C1053.341,420.107603 1049.81736,441.881474 1040.27864,473.276779 C1038.8561,477.954166 1031.08194,481.401944 1021.94822,481.401944 L901.603109,481.401944 L901.603109,481.401944 L789.284881,481.401944 C779.031868,481.401944 770.722479,477.090239 770.72534,471.774794 C770.725756,471.006192 770.90376,470.240382 771.253883,469.49352 C785.026305,440.214471 790.944716,419.701685 789.009121,407.955164 C778.382382,343.464788 736.500333,294.438529 736.500333,259.249202 C736.500333,220.087888 743.080888,195.797993 756.242003,186.379518 C759.732926,183.882066 765.320848,182.401944 771.270091,182.401944 Z" id="矩形" stroke="#4A4A4A" stroke-width="4" fill="url(#linearGradient-1)" fill-rule="nonzero"></path>
        <path d="M461.990828,541.731389 L716.553809,541.731389 C728.035984,541.731389 737.340736,548.582391 737.336553,557.026658 C737.335605,558.940341 736.84617,560.836886 735.892335,562.617367 C725.234658,582.548822 719.905819,616.280749 719.905819,663.813153 C719.905819,719.451167 760.484722,799.012065 775.087191,900.05172 C777.877297,919.357435 773.931225,953.948034 763.248981,1003.82352 C761.655899,1011.25415 752.949748,1016.73139 742.721052,1016.73139 L607.948583,1016.73139 L607.948583,1016.73139 L482.165289,1016.73139 C470.683111,1016.73139 461.377566,1009.88169 461.380771,1001.43742 C461.381236,1000.2164 461.58058,998.99981 461.972677,997.813323 C477.39618,951.299784 484.024109,918.712582 481.856469,900.05172 C469.955763,797.600454 423.05276,719.71593 423.05276,663.813153 C423.05276,601.600362 430.422213,563.012736 445.161125,548.050277 C449.070551,544.082753 455.32837,541.731389 461.990828,541.731389 Z" id="矩形" stroke="#4A4A4A" stroke-width="4" fill="url(#linearGradient-2)" fill-rule="nonzero"></path>
    </g>
</svg>