<?xml version="1.0" encoding="UTF-8"?>
<svg width="1200px" height="1200px" viewBox="0 0 1200 1200" version="1.1" xmlns="http://www.w3.org/2000/svg" xmlns:xlink="http://www.w3.org/1999/xlink">
    <title>画板</title>
    <defs>
        <linearGradient x1="50%" y1="24.9261946%" x2="100%" y2="101.768856%" id="linearGradient-1">
            <stop stop-color="#80C3F3" offset="0%"></stop>
            <stop stop-color="#4A90E2" offset="100%"></stop>
        </linearGradient>
        <linearGradient x1="28.0974451%" y1="-34.2023634%" x2="160.00842%" y2="310.80655%" id="linearGradient-2">
            <stop stop-color="#9ED5F7" offset="0%"></stop>
            <stop stop-color="#2783DA" offset="100%"></stop>
        </linearGradient>
    </defs>
    <g id="画板" stroke="none" stroke-width="1" fill="none" fill-rule="evenodd">
        <g id="编组-2" transform="translate(146.000000, 31.000000)" fill-rule="nonzero">
            <g id="编组" transform="translate(0.000000, 208.000000)">
                <rect id="矩形" fill="#000000" x="439" y="509" width="35" height="110"></rect>
                <path d="M454,0 C704.737274,0 908,148.974206 908,332.743203 C908,474.017066 787.874033,594.727601 618.400901,643 C600.270984,567.27741 532.216189,510.99849 451.03268,510.99849 C370.423251,510.99849 302.757515,566.484284 284.057003,641.390622 C117.51303,592.085055 0,472.472149 0,332.743203 C0,148.974206 203.262723,0 454,0 Z" id="形状结合" stroke="#000000" stroke-width="14" fill="url(#linearGradient-1)"></path>
                <path d="M464.741671,374.777143 C643.40467,374.777143 779.336032,464.152001 779.336032,534.366294 C779.336032,580.379149 717.137415,620.682811 623.980184,643 C645.093782,559.900594 542.687025,477.293891 454,477.293891 C365.817192,477.293891 262.294523,559.900594 281.924049,641.580987 C191.980407,619.005207 132.340081,579.422935 132.340081,534.366294 C132.340081,464.152001 286.078672,374.777143 464.741671,374.777143 Z" id="形状结合" stroke="#000000" stroke-width="10" fill="#FFFFFF"></path>
            </g>
            <path d="M454,197 C481.061952,197 503,145.149946 503,81.189664 C503,17.2293815 481.061952,0 454,0 C426.938048,0 405,17.2293815 405,81.189664 C405,145.149946 426.938048,197 454,197 Z" id="椭圆形" stroke="#000000" stroke-width="20" fill="#FFFFFF"></path>
        </g>
        <g id="bell" transform="translate(427.000000, 805.000000)" fill-rule="nonzero">
            <path d="M329.52381,295.739131 C301.926191,295.739131 291.216667,279.630435 291.216667,178.434783 C291.216667,99.1304346 255.380952,49.5652176 193.595238,42.1304348 L193.595238,16.5217389 C193.595238,7.43478247 186.180953,0 177.119048,0 C168.057143,0 160.642857,7.43478247 160.642857,16.5217389 L160.642857,41.3043478 C94.7380955,46.6739131 56.4309525,97.0652177 56.4309525,178.021739 C56.4309525,279.217392 44.4857144,295.326087 16.4761903,295.326087 C7.82619038,295.739131 0,301.934782 0,311.021739 C0,320.521739 7.41428557,326.717392 16.4761903,326.717392 L123.571429,326.717392 C124.807143,339.108695 128.514286,354.391304 138.4,365.130435 C147.05,374.630435 158.583333,380 172.17619,380 C185.769047,380 197.302381,374.217392 205.952381,365.130435 C216.25,353.978261 220.369048,339.108695 222.016666,326.717392 L329.52381,326.717392 C338.585714,326.717392 346,320.521739 346,311.021739 C346,301.934782 338.585714,295.73913 329.52381,295.739131 Z" id="形状-path" fill="#000000"></path>
            <path d="M181.936709,345.714286 C180.367089,347.428571 178.012658,350 172.518987,350 C167.417722,350 165.063291,347.428571 163.493671,345.714286 C160.746835,341.857143 158.78481,337.571428 158,329 L189,329 C187.43038,337.571428 185.468354,341.857143 181.936709,345.714286 Z" id="形状-path" fill="#FFFFFF"></path>
            <path d="M177.014493,306 L62,306 C79.1594208,273.377358 79.1594208,222.579246 79.1594208,175.043397 C79.1594208,99.0792453 112.086957,59 171.449276,59 L176.550725,59 C235.913043,59 268.84058,99.0792453 268.84058,175.043397 C268.84058,222.579246 268.84058,273.377358 286,306 L177.014493,306 Z" id="形状-path" fill="url(#linearGradient-2)"></path>
            <path d="M233.98019,144.839547 C234.399462,152.624644 228.11038,159.590258 220.144209,160 L219.305664,160 C211.758765,160 205.05041,154.263613 204.631138,146.478515 C203.373321,128.040126 188.698795,121.484255 187.021706,120.664771 C179.474807,117.386835 176.12063,109.191995 179.055534,101.81664 C181.99044,94.441284 190.375883,91.1633483 197.922783,94.0315424 C199.599872,94.8510263 231.88383,107.96277 233.98019,144.839547 L233.98019,144.839547 Z" id="形状-path" fill="#FFFFFF"></path>
        </g>
    </g>
</svg>