<?xml version="1.0" encoding="UTF-8"?>
<svg width="250px" height="250px" viewBox="0 0 250 250" version="1.1" xmlns="http://www.w3.org/2000/svg" xmlns:xlink="http://www.w3.org/1999/xlink">
    <title>xbell-250 </title>
    <defs>
        <linearGradient x1="50%" y1="25.0228635%" x2="100%" y2="101.569267%" id="linearGradient-1">
            <stop stop-color="#80C3F3" offset="0%"></stop>
            <stop stop-color="#4A90E2" offset="100%"></stop>
        </linearGradient>
        <linearGradient x1="50%" y1="-22.1292312%" x2="50%" y2="111.915064%" id="linearGradient-2">
            <stop stop-color="#EEEEEE" offset="0%"></stop>
            <stop stop-color="#E5E5E5" offset="40.9516021%"></stop>
            <stop stop-color="#D8D8D8" offset="100%"></stop>
        </linearGradient>
    </defs>
    <g id="xbell-250" stroke="none" stroke-width="1" fill="none" fill-rule="evenodd">
        <g id="编组-2" transform="translate(71.875000, 7.500000)" fill-rule="nonzero" stroke="#000000">
            <g id="编组" transform="translate(0.000000, 29.375000)">
                <path d="M47.6041667,0 C73.8952217,0 95.2083333,15.5905484 95.2083333,34.8224645 C95.2083333,49.6071515 82.612526,62.2398312 64.842422,67.2916667 C62.9414096,59.3670955 55.8055246,53.4773562 47.2930283,53.4773562 C38.8407273,53.4773562 31.745637,59.2840927 29.784795,67.123241 C12.3218279,61.9632818 0,49.4454718 0,34.8224645 C0,15.5905484 21.3131114,0 47.6041667,0 Z" id="形状结合" stroke-width="2" fill="url(#linearGradient-1)"></path>
                <path d="M48.7304845,39.2214286 C67.464192,39.2214286 81.717274,48.5747461 81.717274,55.9228593 C81.717274,60.7382274 75.1954384,64.9561132 65.4274376,67.2916667 C64.4417176,58.595092 56.903444,49.6911577 47.6041667,49.6911577 C38.357759,49.6911577 30.6167979,58.5402353 29.561144,67.1431632 C20.1301042,64.7805475 13.8765182,60.6381571 13.8765182,55.9228593 C13.8765182,48.5747461 29.996777,39.2214286 48.7304845,39.2214286 Z" id="形状结合" fill="#FFFFFF"></path>
            </g>
            <path d="M47.9166667,28.75 C51.7136242,28.75 54.7916667,21.1830506 54.7916667,11.8487454 C54.7916667,2.51444019 51.7136242,0 47.9166667,0 C44.1197092,0 41.0416667,2.51444019 41.0416667,11.8487454 C41.0416667,21.1830506 44.1197092,28.75 47.9166667,28.75 Z" id="椭圆形" stroke-width="2" fill="#FFFFFF"></path>
        </g>
        <path d="M118.949653,90.1548421 C119.426285,89.4744355 119.795727,89.1755626 120.05798,89.2582232 C120.320233,89.3408838 120.691472,89.6397568 121.171697,90.1548421 L121.657986,132.916667 L118.949653,132.916667 L118.949653,90.1548421 Z" id="矩形" fill="#000000" fill-rule="nonzero"></path>
        <path d="M96.6969103,132.916667 L140.625202,132.916667 C142.606607,132.916667 144.212268,134.464152 144.211546,136.371519 C144.211383,136.803777 144.126924,137.232163 143.962327,137.634333 C142.1232,142.136394 141.203637,149.755667 141.203637,160.492153 C141.203637,173.059511 148.206076,191.030504 150.72593,213.853057 C151.207401,218.213778 150.526453,226.027005 148.683087,237.292739 C148.408179,238.97115 146.905814,240.208333 145.140714,240.208333 L121.883899,240.208333 L100.178287,240.208333 C98.1968815,240.208333 96.5910837,238.661142 96.5916367,236.753775 C96.591717,236.477973 96.6261164,236.203174 96.6937781,235.935174 C99.3553126,225.428826 100.499052,218.06812 100.124996,213.853057 C98.0713678,190.711653 89.9776191,173.119315 89.9776191,160.492153 C89.9776191,146.439702 91.2493181,137.723638 93.792717,134.343959 C94.4673414,133.447786 95.547213,132.916667 96.6969103,132.916667 Z" id="矩形" stroke="#000000" stroke-width="2" fill="url(#linearGradient-2)" fill-rule="nonzero"></path>
        <g id="bell" transform="translate(105.416667, 98.256341)" fill-rule="nonzero">
            <path d="M28.1746032,21.3423913 C25.8149802,21.3423913 24.8993056,19.9911685 24.8993056,11.5027174 C24.8993056,4.85054347 21.8353174,0.692934804 16.5525794,0.0692934816 L13.735119,0 C8.10019843,0.450407622 4.8249008,4.67730981 4.8249008,11.4680707 C4.8249008,19.9565218 3.80357143,21.3077446 1.40873014,21.3077446 C0.669146817,21.3423913 0,21.8620924 0,22.6243207 C0,23.4211957 0.633928559,23.9408968 1.40873014,23.9408968 L10.5654762,23.9408968 C10.671131,24.9802989 10.9880952,26.2622282 11.8333333,27.1630435 C12.5729167,27.9599185 13.5590278,28.4103261 14.7212301,28.4103261 C15.8834325,28.4103261 16.8695437,27.9252718 17.609127,27.1630435 C18.4895833,26.2275815 18.8417659,24.9802989 18.9826388,23.9408968 L28.1746032,23.9408968 C28.9494048,23.9408968 29.5833333,23.4211957 29.5833333,22.6243207 C29.5833333,21.8620924 28.9494048,21.3423913 28.1746032,21.3423913 Z" id="形状-path" fill="#000000"></path>
            <path d="M15.585443,25.1535234 C15.4377637,25.2895778 15.2162447,25.4936594 14.6993671,25.4936594 C14.2194093,25.4936594 13.9978903,25.2895778 13.850211,25.1535234 C13.5917721,24.8474009 13.407173,24.5072649 13.3333333,23.8269928 L16.25,23.8269928 C16.1023207,24.5072649 15.9177215,24.8474009 15.585443,25.1535234 Z" id="形状-path" fill="#FFFFFF"></path>
            <path d="M15.1229296,21.1186594 L6.45833333,21.1186594 C7.75103524,18.6972758 7.75103524,14.9268356 7.75103524,11.3985337 C7.75103524,5.76016886 10.2316253,2.78532609 14.703675,2.78532609 L15.0879918,2.78532609 C19.5600414,2.78532609 22.0406315,5.76016886 22.0406315,11.3985337 C22.0406315,14.9268356 22.0406315,18.6972758 23.3333333,21.1186594 L15.1229296,21.1186594 Z" id="形状-path" fill="#FFFFFF"></path>
            <path d="M19.022756,10.0769928 L18.9510055,10.0769928 C18.3052515,10.0769928 17.7312479,9.59539307 17.6953727,8.94179346 C17.587747,7.39379437 16.3321141,6.84339473 16.1886133,6.77459477 C15.5428592,6.49939495 15.2558575,5.81139534 15.506984,5.19219574 C15.7581106,4.57299608 16.475615,4.29779626 17.1213691,4.53859613 C17.26487,4.60739608 20.0272622,5.70819543 20.2066383,8.80419349 C20.2425135,9.4577931 19.7043852,10.0425928 19.022756,10.0769928 Z" id="形状-path" fill="#000000"></path>
        </g>
    </g>
</svg>